<?xml version="1.0" standalone="no"?>
<!DOCTYPE svg PUBLIC "-//W3C//DTD SVG 20010904//EN"
 "http://www.w3.org/TR/2001/REC-SVG-20010904/DTD/svg10.dtd">
<svg version="1.0" xmlns="http://www.w3.org/2000/svg"
 width="700.000000pt" height="700.000000pt" viewBox="0 0 700.000000 700.000000"
 preserveAspectRatio="xMidYMid meet">
<metadata>
Created by potrace 1.14, written by Peter Selinger 2001-2017
</metadata>
<g transform="translate(0.000000,700.000000) scale(0.100000,-0.100000)"
fill="#000000" stroke="none">
<path d="M2257 5864 c-1 -1 -32 -5 -68 -8 -36 -4 -76 -9 -90 -11 -110 -21
-131 -26 -208 -52 -224 -75 -425 -198 -581 -358 -104 -107 -100 -102 -166
-196 -269 -383 -340 -863 -193 -1312 55 -168 161 -357 272 -484 45 -52 493
-507 1825 -1851 l452 -457 413 417 c226 229 725 733 1109 1120 744 751 714
720 793 818 119 147 234 386 270 560 19 87 26 131 32 189 91 938 -691 1718
-1620 1617 -37 -4 -76 -9 -85 -11 -353 -69 -630 -227 -865 -495 l-47 -55 -33
39 c-78 96 -206 213 -296 271 -25 16 -48 32 -51 35 -3 3 -16 11 -30 19 -197
112 -369 169 -586 197 -54 6 -242 13 -247 8z"/>
</g>
</svg>
