<svg xmlns="http://www.w3.org/2000/svg" width="195.524" height="64.546" viewBox="0 0 195.524 64.546">
  <g id="Group_31" data-name="Group 31" transform="translate(-375.959 -213.662)">
    <g id="Group_19" data-name="Group 19" transform="translate(435.29 246.39)">
      <g id="Group_13" data-name="Group 13" transform="translate(0 0.048)">
        <path id="Path_23" data-name="Path 23" d="M617.32,337.214h4.167v8.333h-5.468a8.117,8.117,0,0,0-8.073,7.812c0,4.765,4.036,7.812,8.594,7.812h4.948v7.812H615.5A16.033,16.033,0,0,1,599.612,353.1c0-5.833,4.427-15.884,17.708-15.884Z" transform="translate(-599.612 -337.214)"/>
        <path id="Path_24" data-name="Path 24" d="M615.5,368.983a15.494,15.494,0,0,1-6.2-1.285,15.966,15.966,0,0,1-2.7-1.5,16.281,16.281,0,0,1-5.746-7.03,15.47,15.47,0,0,1-1.244-6.075,15.077,15.077,0,0,1,.9-4.943,16.775,16.775,0,0,1,1.2-2.646,16.124,16.124,0,0,1,1.773-2.54,15.562,15.562,0,0,1,5.465-4.093,20.177,20.177,0,0,1,8.369-1.662h4.167v8.333h-5.469a7.9,7.9,0,0,0-3.107.639,8.335,8.335,0,0,0-2.57,1.715,8.1,8.1,0,0,0-1.75,2.492,7.221,7.221,0,0,0-.646,2.967,7.527,7.527,0,0,0,.7,3.231,7.373,7.373,0,0,0,1.886,2.462,8.539,8.539,0,0,0,2.741,1.569,9.769,9.769,0,0,0,3.265.551h4.948v7.812Zm5.99-31.769H617.32a20.182,20.182,0,0,0-8.369,1.662,15.562,15.562,0,0,0-5.465,4.093,16.119,16.119,0,0,0-1.772,2.54,16.776,16.776,0,0,0-1.2,2.646,15.085,15.085,0,0,0-.9,4.943,15.47,15.47,0,0,0,1.244,6.075,16.173,16.173,0,0,0,1.461,2.694A16.315,16.315,0,0,0,606.6,366.2a15.937,15.937,0,0,0,2.7,1.5,15.5,15.5,0,0,0,6.2,1.285h5.99v-7.812h-4.948a9.776,9.776,0,0,1-3.265-.55,8.549,8.549,0,0,1-2.741-1.569,7.381,7.381,0,0,1-1.886-2.462,7.53,7.53,0,0,1-.7-3.231,7.223,7.223,0,0,1,.646-2.968,8.1,8.1,0,0,1,1.75-2.491,8.34,8.34,0,0,1,2.57-1.715,7.9,7.9,0,0,1,3.107-.638h5.469Z" transform="translate(-599.612 -337.214)"/>
      </g>
      <g id="Group_14" data-name="Group 14" transform="translate(84.1 0)">
        <path id="Path_25" data-name="Path 25" d="M934.092,337.035c7.264,0,10.1,6.27,10.156,11.766.079,7.448.039,9.41.039,20.009h-8.592l-.039-21.05a2.664,2.664,0,0,0-2.866-2.344h-4.946a7.484,7.484,0,0,0-3.126.781v22.656h-8.073c-.025-12.385,0-19.551,0-31.817Z" transform="translate(-916.633 -337.035)"/>
        <path id="Path_26" data-name="Path 26" d="M916.644,368.851c-.017-8.051-.012-13.761-.006-20.372,0-3.517.006-7.153.006-11.445h17.447a9.921,9.921,0,0,1,4.645,1.066,9,9,0,0,1,3.138,2.757,12.117,12.117,0,0,1,1.786,3.787,15.727,15.727,0,0,1,.587,4.157c.056,5.283.052,7.731.045,12.608,0,1.925-.006,4.32-.006,7.4h-8.592l-.04-21.051a2.558,2.558,0,0,0-.515-1.289,2.5,2.5,0,0,0-.87-.732,3.235,3.235,0,0,0-1.48-.322h-4.946a7.478,7.478,0,0,0-3.125.781v22.656Zm0-31.817c0,4.292,0,7.928-.006,11.445-.006,6.611-.01,12.321.006,20.372h8.073V346.2a7.474,7.474,0,0,1,3.125-.781h4.946a3.235,3.235,0,0,1,1.48.322,2.492,2.492,0,0,1,.87.732,2.558,2.558,0,0,1,.515,1.289l.04,21.051h8.592c0-3.081,0-5.476.006-7.4.007-4.877.01-7.325-.045-12.608a15.727,15.727,0,0,0-.587-4.157,12.116,12.116,0,0,0-1.786-3.787,9,9,0,0,0-3.139-2.757,9.92,9.92,0,0,0-4.644-1.066Z" transform="translate(-916.633 -337.034)"/>
      </g>
      <g id="Group_15" data-name="Group 15" transform="translate(112.954 0.048)">
        <path id="Path_27" data-name="Path 27" d="M1025.464,360.65h10.416a3.916,3.916,0,0,0,3.645-3.125c0-4.114-11.2-11.952-11.2-16.666a7.675,7.675,0,0,1,1.043-3.645h8.379a7.323,7.323,0,0,0-.89,1.8c-.56,4.2,11.78,11.9,11.78,17.995v2.083c0,3.619-5.813,9.853-10.741,9.853h-12.5Z" transform="translate(-1025.401 -337.214)"/>
        <path id="Path_28" data-name="Path 28" d="M1037.9,368.941h-12.5l.064-8.291h10.416a3.36,3.36,0,0,0,1.525-.367,4.086,4.086,0,0,0,1.147-.873,3.34,3.34,0,0,0,.973-1.885,3.827,3.827,0,0,0-.45-1.641,12.029,12.029,0,0,0-1.193-1.895c-.991-1.331-2.292-2.754-3.67-4.26-2.893-3.163-5.884-6.433-5.884-8.87a7.487,7.487,0,0,1,.98-3.522l.062-.123h8.379a7.448,7.448,0,0,0-.89,1.8,3.082,3.082,0,0,0,.3,1.619,9.525,9.525,0,0,0,1.12,1.859,50.705,50.705,0,0,0,3.726,4.239,55.518,55.518,0,0,1,4.509,5.193c1.432,1.979,2.129,3.642,2.129,5.085v2.083a6.509,6.509,0,0,1-.985,3.066,15.567,15.567,0,0,1-6,5.756A8.243,8.243,0,0,1,1037.9,368.941Zm-12.434-8.291-.064,8.291h12.5a8.243,8.243,0,0,0,3.757-1.031,15.564,15.564,0,0,0,6-5.756,6.507,6.507,0,0,0,.986-3.066V357c0-1.443-.7-3.106-2.129-5.085a55.518,55.518,0,0,0-4.509-5.193,50.661,50.661,0,0,1-3.726-4.239,9.513,9.513,0,0,1-1.12-1.859,3.08,3.08,0,0,1-.3-1.619,7.435,7.435,0,0,1,.89-1.8h-8.379l-.062.123a7.487,7.487,0,0,0-.98,3.522c0,2.437,2.991,5.708,5.884,8.87,1.378,1.506,2.679,2.929,3.67,4.26a12.05,12.05,0,0,1,1.193,1.895,3.822,3.822,0,0,1,.45,1.641,3.34,3.34,0,0,1-.973,1.885,4.09,4.09,0,0,1-1.147.873,3.36,3.36,0,0,1-1.525.367Z" transform="translate(-1025.4 -337.214)"/>
      </g>
      <g id="Group_18" data-name="Group 18" transform="translate(59.894 0.048)">
        <g id="Group_16" data-name="Group 16" transform="translate(0.26)">
          <path id="Path_29" data-name="Path 29" d="M826.364,337.214H849.02v8.333H826.364v-8.333Z" transform="translate(-826.364 -337.214)"/>
          <path id="Path_30" data-name="Path 30" d="M826.364,345.547v-8.333H849.02v8.333Zm0-8.333v8.333H849.02v-8.333Z" transform="translate(-826.364 -337.214)"/>
        </g>
        <g id="Group_17" data-name="Group 17" transform="translate(0 12.499)">
          <path id="Path_31" data-name="Path 31" d="M848.3,403.6H825.385V384.33H848.3v7.031H834.24c-.08,1.928,0,3.021,0,4.947H848.3Z" transform="translate(-825.385 -384.33)"/>
          <path id="Path_32" data-name="Path 32" d="M848.3,403.6H825.385V384.33H848.3v7.031H834.24c-.051,1.251-.037,2.133-.019,3.154.01.549.019,1.117.019,1.793H848.3Zm0-19.27H825.385V403.6H848.3v-7.292H834.24c0-.676-.01-1.244-.019-1.793-.017-1.021-.033-1.9.019-3.154H848.3Z" transform="translate(-825.385 -384.33)"/>
        </g>
      </g>
    </g>
    <g id="Group_20" data-name="Group 20" transform="translate(395.898 213.662)">
      <path id="Path_33" data-name="Path 33" d="M468.64,242.31l-7.31-8.965-.06.027-.1-.217-10.053-12.328,7.466-7.165h19.861l.043.042,7.239,7.156Zm-7.121-9.194,6.865,8.419-1.778-9.1-6.97-10.886Zm9.51-.784-2.1,9.153,6.545-8.215h0l1.5-11.694Zm-4.137.044,1.759,9,2.094-9.107-1.838-10.613ZM477.35,220.9l-1.481,11.522,5.648-11.591-1.31-2.762Zm3.075-3.049,1.414,2.981-5.566,11.424,9.065-11.378-3.989-3.943Zm-24.369,2.973,5.02,11.38-1.836-11.278-2.209-3.057Zm-4.539.022,9.214,11.3-4.987-11.306,1.075-3.262-.776-1.074Zm8.056.058,6.881,10.746-2.1-10.771.273-3.827Zm5.07-.044,2.1,10.737,2.013-10.714-3.851-3.661Zm4.426.025,1.844,10.647,2.452-10.666-.6-3.4Zm4.02-3.245.574,3.233-.007.029L471.267,231.3l5.759-10.427ZM456.256,216.3l3.153,4.364,5.056-3.857-3-2.856h-2.754Zm16.779.919,4.168,3.417,3.94-3.905-2.814-2.781h-1.756Zm-8.105-.374,3.983,3.787,3.678-3.4-3.955-3.243-3.7,2.826Zm4.117-2.9,3.617,2.965-.526-2.965Zm3.387,0,.523,2.945,3.186-2.945Zm-10.551,0,2.773,2.636.182-2.549.291.021-.169,2.371,3.248-2.479Z" transform="translate(-451.122 -213.662)"/>
      <path id="Path_34" data-name="Path 34" d="M708.765,339.732a13.211,13.211,0,1,1-13.211,13.211,13.226,13.226,0,0,1,13.211-13.211m0-2.7a15.908,15.908,0,1,0,15.909,15.908,15.908,15.908,0,0,0-15.909-15.908Z" transform="translate(-628.728 -304.306)"/>
    </g>
    <g id="Group_21" data-name="Group 21" transform="translate(375.959 220.608)">
      <path id="Path_35" data-name="Path 35" d="M413.863,296.934c7.72,0,4.538-11.468,15.91-26.205,12.446-16.144,21.057-16.144,21.057-26.675a10.151,10.151,0,0,0-.876-4.207h-15.6c.88,1.742,1.033,2.008,1.033,3.273,0,4.959-4.493,8.421-11.7,16.379-8.19,9.031-8.346,10.813-10.3,13.1-1.95-2.289-2.1-4.071-10.294-13.1-7.206-7.958-11.7-11.42-11.7-16.379,0-1.264.153-1.531,1.034-3.273h-15.6a10.117,10.117,0,0,0-.876,4.207c0,10.531,8.61,10.531,21.057,26.675,11.372,14.738,8.189,26.205,15.911,26.205Z" transform="translate(-375.959 -239.846)"/>
      <path id="Path_36" data-name="Path 36" d="M413.863,296.933h-.936a5.208,5.208,0,0,1-2.527-.57,5.044,5.044,0,0,1-1.75-1.637,25.5,25.5,0,0,1-2.534-6.035,75.861,75.861,0,0,0-3.1-8.091,51.033,51.033,0,0,0-6-9.873,82.481,82.481,0,0,0-7.218-8.211c-2.212-2.2-4.207-3.934-5.968-5.465a34.319,34.319,0,0,1-5.784-5.8,11.876,11.876,0,0,1-2.087-7.2,10.151,10.151,0,0,1,.876-4.207h15.6l-.07.139c-.816,1.613-.963,1.9-.963,3.134a9.455,9.455,0,0,0,2.01,5.569,61.56,61.56,0,0,0,5.586,6.4c1.225,1.3,2.614,2.766,4.1,4.41a78.811,78.811,0,0,1,8.716,10.9,20.386,20.386,0,0,0,1.578,2.2,20.432,20.432,0,0,0,1.581-2.2,78.972,78.972,0,0,1,8.716-10.9c1.489-1.644,2.878-3.114,4.1-4.41a61.6,61.6,0,0,0,5.585-6.4,9.456,9.456,0,0,0,2.01-5.569c0-1.229-.147-1.519-.961-3.13l-.072-.143h15.6a10.19,10.19,0,0,1,.876,4.207,11.877,11.877,0,0,1-2.087,7.2,34.324,34.324,0,0,1-5.784,5.8c-1.76,1.531-3.756,3.266-5.968,5.465a82.446,82.446,0,0,0-7.218,8.211,51.036,51.036,0,0,0-6,9.874,76.036,76.036,0,0,0-3.1,8.091,25.487,25.487,0,0,1-2.533,6.034,5.041,5.041,0,0,1-1.749,1.637A5.208,5.208,0,0,1,413.863,296.933Zm-21.43-57.087h-15.6a10.151,10.151,0,0,0-.876,4.207,11.875,11.875,0,0,0,2.087,7.2,34.317,34.317,0,0,0,5.784,5.8c1.76,1.53,3.756,3.265,5.968,5.465a82.481,82.481,0,0,1,7.218,8.211,51.031,51.031,0,0,1,6,9.873,76,76,0,0,1,3.1,8.091,25.485,25.485,0,0,0,2.534,6.035,5.047,5.047,0,0,0,1.75,1.637,5.208,5.208,0,0,0,2.527.57h.936a5.2,5.2,0,0,0,2.526-.57,5.038,5.038,0,0,0,1.749-1.637,25.487,25.487,0,0,0,2.533-6.034,76.034,76.034,0,0,1,3.1-8.091,51.053,51.053,0,0,1,6-9.874,82.415,82.415,0,0,1,7.218-8.211c2.212-2.2,4.207-3.935,5.968-5.465a34.322,34.322,0,0,0,5.784-5.8,11.876,11.876,0,0,0,2.087-7.2,10.19,10.19,0,0,0-.876-4.207h-15.6l.072.143c.814,1.611.961,1.9.961,3.13a9.456,9.456,0,0,1-2.01,5.569,61.6,61.6,0,0,1-5.585,6.4c-1.225,1.3-2.614,2.766-4.1,4.41a78.94,78.94,0,0,0-8.716,10.9,20.467,20.467,0,0,1-1.581,2.2,20.386,20.386,0,0,1-1.578-2.2,78.831,78.831,0,0,0-8.716-10.9c-1.489-1.644-2.878-3.113-4.1-4.41a61.631,61.631,0,0,1-5.586-6.4,9.457,9.457,0,0,1-2.01-5.569c0-1.23.147-1.521.963-3.134Z" transform="translate(-375.959 -239.846)"/>
    </g>
    <g id="Group_22" data-name="Group 22" transform="translate(463.939 220.627)">
      <path id="Path_37" data-name="Path 37" d="M712.542,239.918h1.135v8.357a2.909,2.909,0,0,1-3.021,3.189,2.947,2.947,0,0,1-3.051-2.9h1.12a1.937,1.937,0,0,0,1.978,1.871c1.242,0,1.84-.675,1.84-2.653Z" transform="translate(-707.605 -239.918)"/>
      <path id="Path_38" data-name="Path 38" d="M751.825,239.918h1.135v7.191c0,2.867-1.671,4.355-3.864,4.355-2.162,0-3.864-1.441-3.864-4.385v-7.161h1.135v7.222c0,2.284,1.227,3.3,2.729,3.3,1.3,0,2.729-.813,2.729-3.281Z" transform="translate(-735.25 -239.918)"/>
      <path id="Path_39" data-name="Path 39" d="M794.877,251.264l-2.5-9.307h-.031l-2.484,9.307h-1.456l-3.236-11.346h1.165l2.775,9.89h.03l2.7-9.89H792.9l2.714,9.875h.031l2.775-9.875h1.15l-3.251,11.346Z" transform="translate(-764.594 -239.918)"/>
      <path id="Path_40" data-name="Path 40" d="M849.849,251.264V239.918h6.21v1.027h-5.075v4.079h4.907v1.027h-4.907v4.186h5.075v1.027Z" transform="translate(-812.114 -239.918)"/>
      <path id="Path_41" data-name="Path 41" d="M887.3,251.264V239.918h1.135v10.319h4.692v1.027Z" transform="translate(-839.632 -239.918)"/>
      <path id="Path_42" data-name="Path 42" d="M919.44,251.264V239.918h1.135v11.346Z" transform="translate(-863.244 -239.918)"/>
      <path id="Path_43" data-name="Path 43" d="M937.934,251.264V239.918h6.21v1.027h-5.075v4.079h4.906v1.027h-4.906v4.186h5.075v1.027Z" transform="translate(-876.832 -239.918)"/>
      <path id="Path_44" data-name="Path 44" d="M980.8,251.264l-3.849-5.136h1.1c2.008,0,3.2-1.027,3.2-2.576,0-1.073-.659-2.607-3.266-2.607h-2.162v10.319h-1.135V239.918h3.419c2.959,0,4.278,1.748,4.278,3.665a3.466,3.466,0,0,1-3.373,3.45l3.2,4.232Z" transform="translate(-903.84 -239.918)"/>
    </g>
    <g id="Group_23" data-name="Group 23" transform="translate(396.1 220.691)">
      <line id="Line_2" data-name="Line 2" x2="34.178" transform="translate(0 0.146)" fill="#fff"/>
      <rect id="Rectangle_3" data-name="Rectangle 3" width="34.178" height="0.292" transform="translate(0 0)"/>
    </g>
  </g>
</svg>
