<?xml version="1.0" encoding="utf-8"?>
<!-- Generator: Adobe Illustrator 29.7.1, SVG Export Plug-In . SVG Version: 9.03 Build 0)  -->
<svg version="1.0" id="Layer_1" xmlns="http://www.w3.org/2000/svg" xmlns:xlink="http://www.w3.org/1999/xlink" x="0px" y="0px"
	 viewBox="0 0 1731 307.7" style="enable-background:new 0 0 1731 307.7;" xml:space="preserve">
<g>
	<path d="M5.8,1.4C3.2,2,0.7,2.4,1,5.6c2.5,25.2-3.2,56.6,0,81.1c0.5,3.6,1.8,4.6,5.5,4.5c24.8-1.9,52.7,2.3,77-0.1
		c10.9-1.1,20-7.6,24.2-17.8c3.2-7.8,3.3-37.5,2.3-46.7C108.5,12.1,95.6,2.2,81.6,1.1C57.3-0.7,30.4,2.4,5.8,1.4z M133.5,91.2H233
		c0.4-2,1.7-11-1.5-11h-87l-1.5-1.5v-25l1.5-1.5h76c4,0,5.5-10.6,0-11L145,40.7c-1.7-0.9-1.8-2.3-2-4c-0.4-2.7-0.4-20,0.2-21.9
		c0.8-2.3,4.2-2.5,6.3-2.7c23.9-2.1,49.3,1.1,73.2,0.9c3,0,6.4-1.6,9.7-0.9c2.5-0.6,1-8.9-0.3-10.6L133,1.7c-1.3,1.2-1.8,6-2,8
		c-1.6,20.7-1.1,53.6,0.9,74.2C132.1,85.5,130.4,90.2,133.5,91.2z M391.8,20.9c2.5-2.4-2.4-10.3-4.3-12.7
		c-4.5-5.5-11.1-6.7-17.9-7.2c-18.7-1.4-41.2-1.1-60,0c-6.8,0.4-13.3,0.8-18.3,5.7c-6.9,6.9-7.1,17.5-6,26.7
		c1.7,14.8,12.2,17.8,25.4,18.6c20.9,1.3,42.8-1.3,63.8,0.2c11.3,3,9.7,26.1-0.8,27.7l-68.9,0c-8.3-1.4-5.8-9.4-14.1-9
		c-7,0.3-5.7,4.4-3.3,9.4c2.9,6.3,10.6,10,17.3,10.6c22.1,2.2,47.5-1.6,70,0c14-2.4,19.3-14.4,18.5-27.6
		c-0.8-13.5-6.6-21.4-20.5-22.5c-22.2-1.7-46.2,1.7-68.6-0.4c-10.9-1.5-10.6-25.8-1.4-27.5c16.3-0.2,32.7,0.1,49,0
		c7.5,0,18.2-2.7,25.2,0.7c3.1,1.5,4.1,7.2,6.9,8.1C385.7,22.6,390.3,22.3,391.8,20.9z M448,14.7v73c0,4.6,9.6,4.6,12,1v-74
		c0-1.3,3.1-2.4,4.4-2.5c8.2-1.1,20.5,1.8,30.1,1.1c2.2-0.2,8.6-0.4,9.3-2.7c1.1-3.3,0.7-8.8-3.8-8.9c-28.8,1.3-62.3-3.3-90.6-0.5
		c-5.4,0.5-7.1,4.1-5.3,9.4c0.6,1.8,8.9,2.6,11.3,2.7c8,0.4,14.6-0.5,23,0C440.9,13.4,446.9,11.1,448,14.7z M615,65.7
		c1.2,6.8-0.9,16.8,0,24c1.3,1.9,3.5,1.6,5.5,1.6c1.3,0,2.6,0.1,3.8-0.2l1.7-1.3v-27c0-1.6-5.1-8.5-5.1-11c0-2.7,4.4-7.6,5-12.1
		c1-7.4,0.9-22.5-3.1-28.8c-5.3-8.4-12-9.1-21.3-9.7c-21-1.4-54.3-1.6-75.1,0c-2.3,0.2-4.5,0.9-6.8,1c-0.9,0.4-1.3,3.7-1.3,4.7
		c-0.1,15.1,0.6,30.5,0.7,45.8c0.1,12.8-2,25.5,0.9,38.1c3,0.8,8.8,1.4,9.9-2.3c2-6.7-1.2-20.3,0.2-27.8c0.3-1.6,1-2.8,2.7-3.3
		l72.7-0.1C609.4,57.8,614.3,61.6,615,65.7z M747.7,12.5c-5.8-8-14.6-10.7-24.1-11.4c-11.7-0.8-49.9-1.5-59.6,1.5
		c-11,3.4-17.9,13.9-19,25c-0.9,9.8-1.1,38.3,2.3,46.7c4.1,10.1,13.7,15.8,24.2,16.8c13.5,1.3,41.5,1.3,55,0
		c15-1.4,25.3-11.5,26.5-26.5C754.1,52.1,754.8,22.3,747.7,12.5z M799.8,1.5c-12.6,1.1-25,7.9-27.6,21.4c-1.4,7.3-1.2,38-0.1,45.7
		c1.6,11.7,14,21.5,25.4,22.6c13.6,1.3,42.4,1.3,56,0c12.9-1.2,24.9-11,26.5-24.5c0.9-7.7,0.9-38.6-1-45c-2.1-7-11-16.8-18-19
		C850.9-0.5,811.8,0.4,799.8,1.5z M913,88.7v-84c0-3.9-9-5.6-10.8-0.8c-1.9,5.2-0.2,9.2-0.2,13.7c0,23.3-0.1,46.7,0,70
		C902.3,92.6,912.1,92.1,913,88.7z M939,91.2h99.5c3-1.2,2.9-11,0-11h-88l-1.5-1.5v-25c5.3-3.8,12.8-1.5,18.5-1.5
		c18.1,0,37.3,1,55-0.1c8.4-0.5,11.3-6.2,4-10.9L951,40.7c-1.7-0.9-1.8-2.3-2-4c-0.4-2.7-0.4-20,0.2-21.9c0.8-2.3,4.2-2.5,6.3-2.7
		c20.3-1.8,47.1-0.1,68.1,0c8.5,0,20.8,4.6,15.9-10.1l-99.2-0.1L938,5.6c1.7,26-2,54.4,0,80.1C938.1,87.6,938.6,89.3,939,91.2z
		 M1074,88.7v-66l2.4-1.4l82.7,67.3c3,2.2,9.2,4.7,11.2,0.3l0.7-84.3c-0.8-4.3-9.2-4.2-12-1v67.5l-4-0.5L1073,3.7
		c-1.9-1.1-5.1-2.7-7.2-2.4c-5.4,0.8-2.6,3.8-2.8,6.2c-2.4,23.1-0.6,47,0.2,70.1c0.1,4.1-3.2,9.7,1.5,13.4
		C1067.2,91.6,1073.2,91.5,1074,88.7z M1238,38.7v-35c0-0.4-2-2.1-2.7-2.3c-10.1-3.1-8.2,11.2-8.3,17.3c-0.3,16.8,1.1,34.1,1.1,51
		c0,5.1-4.3,19.2,2.6,21.3c2.2,0.7,5.8,0.7,7.3-1.3v-35c0-0.3,1-2.3,1.7-2.5l81.2,0.1c1.6,5.8-0.1,11.8,0,17.4
		c0,2.2,1.1,4.1,1.1,6.1c0.2,6-3.9,17.5,6.4,15.4c2.6-0.5,4.1-3.2,4.3-5.7c0.9-9.9-1-24-0.8-34.8c0.2-13.8,2.9-29,0.8-42.7
		c-0.6-4.1-1.3-7-6.2-6.8c-9.7,0.4-4.5,13.6-4.5,19.6c0,2.2-1,4-1,6c-0.2,7.1,3.1,13.7-6.5,14.5c-17.4,1.6-52.7,1.6-70.1,0
		C1241.9,41,1239.8,40.8,1238,38.7z M1500,88.7V20.2c4.8,2,9.4,5.8,13.5,9c19.5,15.3,38.6,31.5,58,47c4.4,3.5,17.5,18.6,23.6,14.5
		c3-2.1,0.8-8.2,0.9-11c0.4-24.1,1.5-49,0.7-72.9c0-1.1-0.4-4.2-1.2-4.8c-2-0.5-8.4-1.3-9.4,0.9l-1,67.7l-2.6,0.6l-82.1-66.9
		c-5.2-3.1-11.7-5.9-12,2.5c-0.7,24.2,0.5,48.7,0.7,72.9c0,3.9-2.5,8.3,1.6,11.3l7.7,0.2C1499,91,1500,89.1,1500,88.7z M1635.5,12.2
		h87c2.3-1.7,2.2-8.4,0.1-10.1l-94.1-1c-3.7,0.3-6,0.4-6.5,4.5c-2.9,25,2.3,55.5,0,81.1c-0.4,1.3,1.7,4.5,2.5,4.5h98.5
		c0.8-3.4,2.5-8.2-0.5-11h-88l-1.5-1.5v-24c0-0.3,1-2.3,1.7-2.5c17.3-0.3,34.6,0.4,51.9,0.1c2.6-0.1,5.1-1,7.9-1.1
		c3.3-0.1,18,1.7,18.6-0.6c-0.4-3.1,1.6-8.7-2.5-9.3l-75.5-0.5c-1.2-0.7-1.7-1.7-2-3c-0.5-2.7-0.3-21.7,0.5-23.5
		C1633.8,13.7,1635.2,12.2,1635.5,12.2z M1472,91.2c1.5-1.5-4-9.4-5.2-11.3c-13.1-21.4-29.9-44.8-44.4-65.6
		c-4-5.7-8.6-16.4-16.5-10.6l-57,85.1c-0.1,3.6,8.8,3,11,2c4.2-1.9,10.1-18.4,15.5-19.5l69-0.1c7.3,0.9,11.2,18.7,19,20
		C1466.3,91.5,1469.3,91,1472,91.2z M958,219.2v17.5c0,0.3,1.6,3.8,2,4c6,4.1,14-10.6,19.6-11.6c7.1,5.1,6.3,10.5,17.5,7.5
		c2.9-0.8,24.4-16.6,21-19.5c-1.6,0-3.2-0.3-4.7,0.3c-1.5,0.6-9.6,9-11.8,10.7c-3.6,2.7-8.4,6.1-12.9,2.9c-2.6-1.8-2.4-9.1-8-8.9
		c-5,0.2-11.6,8.4-15.1,12c-5.9-3.7,0.6-21-4.5-23.5c-7.9-1.9-11.2,8.6-16.4,12.6l-11.1,18.9c-1.5-1.1-1.5-1.6-1.4-3.4
		c0.1-3.3,5.1-19.4,6.5-23.6c1.2-3.9,10.2-24.3,8.5-26c-2.7-0.8-4.2,2-5.4,4.1c-8.9,15.7-5.4,24-22.2,37.8c-2.9,2.4-12.8,10.3-16,7
		c-2.3-4.2-1.1-12.5-0.2-17.3c0.5-2.6,8.5-24-2.2-15.2c-6.5,5.4-13.5,15.4-20.5,21.5c-1.3,1.1-7.1,5.8-8,5.8
		c-7.2-0.6,4-19.6,4.3-22.5c0.5-4.6-3.9-3.2-5.5-0.9c-2.5,3.5-2,5.7-6.8,9.7c-16.7,13.9-13.8,0.2-19.7-2.3c-5.3-2.3-11,3.4-14.1,7.5
		c-3.8,5.1-6.4,12-9.4,17.7c-0.7,1.2,0.7,2.8-2.2,2.2c0-13,9.5-24.8,11-37.5c-5.3-2.1-5.2,5.1-7,8c-1.8,2.9-7.8,7.2-10.5,10.6
		c-8.5,10.6-15.8,24.3-24.6,34.4c-3.5,4-11.3,13.2-11,1.1c0.4-16.2,7.1-38.1,12.6-53.5c1.7-4.8,6-18.3,8.4-21.6
		c3.9-5.1,11.3-2.8,16.5-3.5c6.3-0.8,12.7-2.3,19-3c2.5-0.3,15.8,0.6,16.5-2.5c0.8-3.4-7.5-2.6-9.5-2.5c-6.3,0.2-33.1,4.7-36.5,2.6
		c-1.3-0.9-0.8-1.4-0.6-2.6c0.8-4.2,9.3-17.6,8.6-20.4c-3.3-4.4-6,1.4-7.8,4.1c-2.7,4.4-7.5,17.6-10.5,19.7l-29.7,5.7
		c-0.3,1.4,0.3,2.4,1.7,2.8c4.3,1.4,17.3-2,22.7-1.7c1.6,0.5,1.7,1.9,1.7,3.4c0,2.5-8.8,27.3-10.4,29.7c-2.3,3.3-5,3.9-7.3,6.2
		c-2.6,2.6-13.4,16.5-17.4,10c-2.7-4.3-0.5-22.4-7.4-22.9c-6.4-0.5-13.7,9.5-17.5,14.1c-2.1,2.4-3.9,7.9-8,8.5
		c-1.9-2.2,12.6-30.4,12-35.5c0-0.9-1.9-0.7-2.5-0.5c-4.2,1-6.8,14.8-10,19c-4.6,6.1-26.5,24.7-33.3,27.7c-5.3,2.3-12,5.2-14.4-2
		c-3.4-9.9,3.6-8.1,9.1-11.3c7.3-4.2,24.8-26.9,8.6-26.5c-9.2,0.2-13.1,9.7-19.1,15c-7.5,6.7-32.2,25.1-41.2,26.8
		c-25.3,4.7-16.1-18.9-6.7-30.7c3.1-3.9,10.3-11.6,13.4-3.5l-0.5,10.4c12-8.2,2.7-26.3-10.5-16.5c-16.2,12-30.6,42.9-45,58l-6.4,2.4
		c-1.3-0.4-1.4-1.3-1.6-2.4c-1-5.3,2-18.8,3.3-24.7c3.9-18,11.4-36.3,18-53.5c5-4.9,10.4-2.6,16.2-3.3c6-0.8,12-2.3,18-3
		c5.7-0.6,11.7,0.6,17.4-1.1l-0.5-3.9l-45.3,2.9c-3.1-1.8,7.3-17.9,7.7-21.6c0.5-4.2-3.1-3.8-5.2-1.2c-5.2,6.3-7.4,16.7-12.6,23.4
		c-4.8,2-10.1,1.7-15.3,2.7c-1.8,0.3-3.3,1.5-5.2,1.8c-1.9,0.4-8.2-0.3-9.4,1.1c-1.9,2.1,3.7,3,4.5,3c4,0.3,21.9-3.4,22.5-0.4
		l-10.7,30.1c-9.2,7.1-16.5,15.5-23.3,0.7c-7.8-3.9-19.5,15.1-21.1,21.7l-4.9,6.8c-0.1-2.1-0.2-4.1,0.3-6.2
		c1.9-8.2,8.7-18.9,10.5-26.5c0.5-1.8,0.2-3.8,0.2-5.7c-4.4-3-4.6,6.1-6.7,7.5c-4,2.7-11.8,2.6-16.1,5.7c-3.8,0.9-14.8,0.7-16.9,2.2
		c-3.2,2.3,1,6,1.5,8.6c1.1,5.8-1.1,14.8-8.4,13.5c-8.4-1.5-0.8-22.3,3.8-26.7c1.3-1.3,6.1-2.8,5.7-4.8c-1-4.7-7.6,0.8-8.7,1.3
		c-7.4,3.1-15.5,4.7-22.7,8.2c-3-0.6,0.4-11.3-4.5-15.5c-2.3-2-4.4-1.9-7.3-1.2c-12.1,2.6-29.3,31.1-35.1,41.9
		c-4,7.5-6.9,15.5-11.1,22.9c-4-3.7,0.2-8.2,1.1-11.9c2.4-10.2,4-20.9,6.9-31.1c3.9-13.6,10.7-26.2,13.5-40
		c-1.9-0.1-3.9,1.1-4.8,2.7c-3.5,6.1-7.6,23.5-11.7,27.3c-1.9,1.8-22.4,12.6-25.9,14.1c-10.3,4.5-6.2-0.5-7.9-7.4
		c-2.2-8.9-9.9-11-18.3-10.7c-10.3,0.4-27.3,6.9-35.9,6c-5.6-0.6-10.6-6.1-11.6-11.5c-4.5-26.7,33.4-76.1,60.5-78.4
		c25.5-2.2,23.7,14.7,13.9,31.9c-4.3,7.5-10,13.4-18.3,16.2c-0.3,7.9,8.5,1.9,11.9-0.6c7.8-6,18.4-26,18.2-35.9
		c-0.4-19.8-26.9-18.7-39.8-12.7c-20.1,9.3-43.5,38.7-49,60c-5.6,21.5-2.4,37.5,23.2,35.2c9.3-0.8,27-7.6,35.1-4.1
		c7.3,3.2,5.7,15.5,1.4,20.6c-4,4.8-18.7,11-24.9,16.1c-5.4,4.4-19.9,17.7-11.1,24c11.2,8.1,27.5-13,33-21.1
		c2.7-3.9,4.7-9.7,7.6-13.4c2.8-3.6,26.6-17,31.4-18.6c1.7-0.5,3.3-0.6,5-0.5c-5.1,18.6-10.3,37.4-12.9,56.6
		c-0.7,5.5-2.3,15.9-2.2,20.9c0.2,6.4,4.3,4.3,6.3-0.8c10.6-27.1,16.8-53.3,35.8-76.9c3.2-3.9,13.5-15.6,18.4-14.8l2.5,1.7
		c-1.4,3.7-0.3,8.2-1.2,11.6c-1.1,4.3-10.3,9.1-13.8,12.2c-4.5,4-18.3,17-13.7,23.2c4.7,6.3,13.4-2,17-5.8
		c11.8-12.3,11.4-27,30.9-31.3c7.6-1.6,1.4,5.9,0.9,8.9c-1.6,10.3,2.1,21.8,14.5,16.5c10.3-4.4,5.7-18.7,8.8-21.2l19.1-5.9l1.5,2.5
		c-1.7,7.8-11,29.4-7.6,36.5c3.1,6.4,8-3,9.5-5.5c6.4-10.7,9.3-23.9,19.5-32.2c8.3,6.3,12.2,12.7,22.5,4.2c5-1.8-0.5,15-0.8,16.3
		c-1.2,7.4-6.7,37.3,9.1,29.1c8.5-4.4,21.5-30.6,27.2-32.8c1.7-0.7,1.3,0.6,1.7,1.2c4.7,6.9,2.7,9.8,13.4,10.6
		c6.4,0.5,17.2-2.7,23.1-5.7c3.6-1.9,18.8-14.6,20.8-14.2c3,0.6-0.6,14.9,7.3,18.8c7.2,3.5,19.3-2.6,25.5-6.8
		c1.9-1.3,15.1-14.7,16.8-13c-0.3,4.6-7.8,24.3-3.9,26.9c1,0.3,2.2,0.2,3.2-0.1c3.2-1.1,12.7-20.5,15.9-25.1
		c1.4-2,11.4-14.6,12.4-14.7c6.2-1.1,4.1,15.6,8.4,20.6c8.6,9.9,22.6-11,25-8.5c-1.6,10.1-8.8,31.9-3.4,40.9
		c6.4,10.7,18.8-7.9,22.8-13c4.7-5.9,9-13.5,13.5-19.2c0.7-0.9,1.6-1.2,2.6-1.7c2.4-0.4,1.3,0.6,1.1,2.1c-0.6,4.7-3.7,14.6-3.5,18.5
		c0.1,1.3,2.8,7.1,4.4,6.4c6.4-2.6,15.9-36.4,26-40.8c3.2,1.2,4.1,4.4,6.6,6.2c9,6.6,13.7-3.2,17.4-2.4c2.3,2.5-0.5,6.5,0.7,10.3
		c2,6.5,12,0.1,15.3-2.3c1.8-1.3,15.3-16.3,17.5-14c-1.1,10.2-3.8,28.8,12.6,23c3.2-1.1,15.9-12.7,17.4-11
		c-2.2,10.3-5.6,39.2,8.4,16.9c4.2-6.6,6.8-14.3,11.2-20.8C948.8,226.5,955.6,216.6,958,219.2z M1302.8,142.4
		c-9.7-7.8-27.3,11.6-32.7,18.3c-17.8,21.9-29.2,49.8-42.5,74.5c-2-1.4-1.6-3.3-1.4-5.4c0.7-8.2,4.2-22.4,6.2-30.8
		c3.2-13.3,13.1-34.2,14.3-45.8c0.7-6.7-3.3-4.7-5.6,0.5c-7.6,17.1-22.7,73.5-21,91.1c0.2,2.6,0.4,5.9,3.5,6.5
		c4.7,0,12.4-22.4,14.8-27.3c9.2-18.7,34.5-67.7,53-76c1.9-0.8,4.1-1.3,6.1-1.6c7.3,1.7-2.9,20.2-5,23.8
		c-5.8,10-13.2,17.7-21.4,25.6c-2.5,2.4-14.8,11.8-15.6,13.5c-0.5,1.1-0.2,1.7,0.3,2.7c0.2,1.3,0.5,1.4,1.8,1.4
		c6.5-0.4,12.9-8.4,23.9-7c7.2,0.9,12.8,7.3,6.6,13.5c-7.6,7.6-19.7,14.9-28.1,22.9c-5.7,5.4-16.1,16.2-18.6,23.3
		c-4,11,5.3,15.7,14.9,11.9c9.4-3.7,24.4-23.5,29.6-32.4c3.2-5.6,10.9-22,11.1-27.9c0.3-10.7-9.4-16.7-19.2-16.6l-1.7-2.3
		c4.7-6.4,10.7-11.2,15.4-17.6C1296.3,174.4,1311.2,149.2,1302.8,142.4z M1135,160.2c-8.6,1.1-7.1,15-12.5,20.9
		c-2.8,3-11.5,6.7-15.1,10.4c-5.2,5.3-9.9,16.2-3.3,22.1c1.4,1.2,5.6,1.7,4.8,4.9c-0.2,0.6-7.4,6.4-8.9,8.1
		c-8.7,9.8-13.8,20.9,3.3,24.5l1,1.3c0.3,7.3-3.2,14.5-0.3,21.7c2.5,1.8,5-16,5.7-17.8c3.4-9.4,6.1-7.2,12.6-11.4
		c5.4-3.4,12.3-7.9,12.7-14.8c-4.8-1.2-4.8,2.6-7.1,4.4c-5.1,4.1-29.2,19.3-30,6.1c-0.4-6.4,10.8-16.3,16.2-18.9
		c3.9-1.9,9.5-0.9,9.8-6l-16.7-5.8c-5.9-9.8,11-22.9,19.4-23.7c2.7-0.3,7.9,1.7,8.9,0c3.1-4.7-2.9-4.2-4.6-6.5
		C1127.4,174.8,1136.6,166.1,1135,160.2z M1351,194.2c-2.7-2-10.9,13-12.7,14c-3.7,2.3-7.6-2-12.6-0.9c-6.1,1.4-14.8,14.4-16.9,20.1
		c-1.5,3.9-4.1,15.1,1.9,15.5c5,0.4,19.1-17.2,23.8-20.8c2.2-0.4,1.5,1,1.5,2.5c0.1,4-1.8,7.4-0.8,11.8c3.1,13.8,23.3-7.9,26.3-7.3
		c1.3,0.3,1.5,2,1.3,3.3c-0.6,5.4-5.1,14.5-5.8,20.2c-0.5,4-1,11.8,5,9c3.8-1.7,14.9-28,19.2-33.8c7.7-10.4,6.6-3.2,13.5,1.1
		c8.7,5.5,17.6-4.5,23.3-10.3l-1.5-2.5c-6.3,0.7-13.5,12.8-20,8.1c-1.8-1.3-3.4-6.6-5.4-7.6c-8.6-4.2-20.8,18.5-23,24.8l-3,0.7
		c0.1-10.4,10.3-22.9,11.8-31.7c0.4-2.1,0.4-4-2.3-4.2c-3.4,2.3-3.9,6.6-6.5,9.5c-2.1,2.4-9,8.3-11.8,10.5c-4.6,3.7-8.8,7.2-14.7,9
		c-2.2-0.4-1.6-6.4-1.3-8.3c1.6-8.8,10.2-20.6,11.4-27.7C1352,197.1,1351.5,196.1,1351,194.2z M248.5,213.2h-234l-1.4,5.9
		c0.3,0.4,9.3,1.1,10.5,1.1c69.5-1,139.7-0.6,208.9,0c4.5,0,20.2,1.9,18.6-5.4C250.9,214.2,249,213.2,248.5,213.2z M1482.8,216.4
		c-1.4,0.2-6.5,0.8-6.8,2.2c1.4,7.2,6.4,3.5,11.5,3.4c80.6-1.2,161.3,1.2,241.9-0.1c5.6-5.6-5.1-5.7-8.8-5.9
		c-13.2-0.6-29.2,0.1-42.9,0c-45.4-0.4-90.8,1.1-136.1,1.1C1522.5,217.2,1501.9,214,1482.8,216.4z"/>
	<path d="M958,219.2c-2.5-2.6-9.2,7.4-10.4,9.1c-4.4,6.5-7,14.2-11.2,20.8c-14,22.3-10.6-6.6-8.4-16.9c-1.6-1.6-14.3,9.9-17.4,11
		c-16.3,5.8-13.6-12.8-12.6-23c-2.2-2.3-15.7,12.7-17.5,14c-3.3,2.4-13.3,8.8-15.3,2.3c-1.2-3.8,1.6-7.8-0.7-10.3
		c-3.7-0.8-8.4,9.1-17.4,2.4c-2.5-1.8-3.3-5-6.6-6.2c-10.1,4.4-19.5,38.1-26,40.8c-1.5,0.6-4.3-5.1-4.4-6.4
		c-0.2-3.9,2.8-13.8,3.5-18.5c0.2-1.4,1.3-2.4-1.1-2.1c-0.9,0.5-1.9,0.8-2.6,1.7c-4.5,5.7-8.8,13.3-13.5,19.2
		c-4.1,5.1-16.4,23.7-22.8,13c-5.4-9,1.8-30.8,3.4-40.9c-2.4-2.5-16.4,18.4-25,8.5c-4.3-5-2.2-21.7-8.4-20.6
		c-0.9,0.2-11,12.7-12.4,14.7c-3.2,4.6-12.7,24-15.9,25.1c-1,0.3-2.2,0.4-3.2,0.1c-3.9-2.6,3.6-22.3,3.9-26.9
		c-1.6-1.7-14.8,11.7-16.8,13c-6.2,4.2-18.3,10.3-25.5,6.8c-7.9-3.8-4.3-18.2-7.3-18.8c-2-0.4-17.2,12.3-20.8,14.2
		c-5.8,3-16.6,6.2-23.1,5.7c-10.6-0.8-8.7-3.7-13.4-10.6c-0.4-0.6,0-1.9-1.7-1.2c-5.7,2.2-18.7,28.4-27.2,32.8
		c-15.8,8.2-10.3-21.7-9.1-29.1c0.2-1.3,5.8-18.1,0.8-16.3c-10.4,8.5-14.3,2.1-22.5-4.2c-10.2,8.3-13.1,21.6-19.5,32.2
		c-1.5,2.5-6.4,11.9-9.5,5.5c-3.4-7,5.9-28.6,7.6-36.5l-1.5-2.5l-19.1,5.9c-3.1,2.5,1.4,16.8-8.8,21.2c-12.4,5.3-16.2-6.2-14.5-16.5
		c0.5-3,6.7-10.6-0.9-8.9c-19.5,4.2-19.1,19-30.9,31.3c-3.7,3.8-12.3,12.1-17,5.8c-4.6-6.2,9.2-19.2,13.7-23.2
		c3.5-3.1,12.7-7.9,13.8-12.2c0.9-3.4-0.2-7.9,1.2-11.6l-2.5-1.7c-4.9-0.8-15.3,10.9-18.4,14.8c-19,23.6-25.2,49.9-35.8,76.9
		c-2,5.1-6.1,7.2-6.3,0.8c-0.1-5,1.4-15.4,2.2-20.9c2.6-19.2,7.7-38,12.9-56.6c-1.7-0.1-3.4-0.1-5,0.5c-4.8,1.6-28.6,15.1-31.4,18.6
		c-2.9,3.7-4.9,9.6-7.6,13.4c-5.6,8.1-21.8,29.2-33,21.1c-8.8-6.3,5.7-19.6,11.1-24c6.2-5,20.9-11.3,24.9-16.1
		c4.2-5.1,5.9-17.4-1.4-20.6c-8.1-3.5-25.8,3.2-35.1,4.1c-25.7,2.2-28.8-13.7-23.2-35.2c5.5-21.3,29-50.6,49-60
		c12.9-6,39.3-7.1,39.8,12.7c0.2,9.9-10.3,29.9-18.2,35.9c-3.4,2.6-12.2,8.5-11.9,0.6c8.4-2.8,14.1-8.7,18.3-16.2
		c9.9-17.2,11.6-34.1-13.9-31.9c-27.1,2.4-65,51.8-60.5,78.4c0.9,5.5,5.9,10.9,11.6,11.5c8.7,1,25.6-5.6,35.9-6
		c8.4-0.3,16.1,1.8,18.3,10.7c1.7,7-2.4,11.9,7.9,7.4c3.5-1.5,24-12.4,25.9-14.1c4.1-3.9,8.1-21.3,11.7-27.3
		c0.9-1.6,2.9-2.8,4.8-2.7c-2.9,13.8-9.6,26.4-13.5,40c-3,10.2-4.5,20.8-6.9,31.1c-0.9,3.7-5,8.2-1.1,11.9
		c4.3-7.3,7.1-15.4,11.1-22.9c5.8-10.8,23-39.3,35.1-41.9c2.9-0.6,5-0.7,7.3,1.2c4.9,4.3,1.5,14.9,4.5,15.5
		c7.3-3.5,15.3-5.2,22.7-8.2c1.1-0.5,7.7-5.9,8.7-1.3c0.5,2.1-4.3,3.6-5.7,4.8c-4.6,4.4-12.2,25.1-3.8,26.7
		c7.3,1.3,9.5-7.7,8.4-13.5c-0.5-2.7-4.7-6.3-1.5-8.6c2-1.5,13.1-1.3,16.9-2.2c4.3-3.1,12.1-3,16.1-5.7c2.1-1.4,2.3-10.5,6.7-7.5
		c0,1.9,0.2,3.9-0.2,5.7c-1.9,7.6-8.7,18.3-10.5,26.5c-0.5,2.1-0.3,4.1-0.3,6.2l4.9-6.8c1.6-6.6,13.3-25.6,21.1-21.7
		c6.9,14.8,14.2,6.4,23.3-0.7l10.7-30.1c-0.6-3-18.6,0.7-22.5,0.4c-0.9-0.1-6.5-0.9-4.5-3c1.2-1.3,7.5-0.7,9.4-1.1
		c1.8-0.4,3.3-1.5,5.2-1.8c5.3-1,10.6-0.7,15.3-2.7c5.2-6.6,7.5-17,12.6-23.4c2.2-2.6,5.7-3,5.2,1.2c-0.4,3.7-10.8,19.8-7.7,21.6
		l45.3-2.9l0.5,3.9c-5.8,1.7-11.8,0.5-17.4,1.1c-6,0.6-12,2.2-18,3c-5.8,0.8-11.2-1.6-16.2,3.3c-6.6,17.1-14.1,35.5-18,53.5
		c-1.3,5.9-4.3,19.4-3.3,24.7c0.2,1.1,0.4,2,1.6,2.4l6.4-2.4c14.4-15.2,28.8-46,45-58c13.3-9.8,22.6,8.3,10.5,16.5l0.5-10.4
		c-3.1-8.1-10.3-0.4-13.4,3.5c-9.4,11.8-18.6,35.4,6.7,30.7c9-1.7,33.7-20.1,41.2-26.8c5.9-5.3,9.9-14.8,19.1-15
		c16.2-0.4-1.3,22.3-8.6,26.5c-5.6,3.2-12.5,1.4-9.1,11.3c2.4,7.2,9.1,4.3,14.4,2c6.8-3,28.8-21.6,33.3-27.7c3.1-4.2,5.7-18.1,10-19
		c0.6-0.1,2.5-0.4,2.5,0.5c0.6,5.1-13.9,33.2-12,35.5c4-0.6,5.9-6.1,8-8.5c3.8-4.5,11.2-14.5,17.5-14.1c6.9,0.5,4.7,18.6,7.4,22.9
		c4.1,6.5,14.8-7.4,17.4-10c2.3-2.3,5-2.9,7.3-6.2c1.6-2.4,10.4-27.2,10.4-29.7c0-1.4-0.1-2.9-1.7-3.4c-5.3-0.3-18.4,3.1-22.7,1.7
		c-1.3-0.4-1.9-1.4-1.7-2.8l29.7-5.7c3-2,7.7-15.3,10.5-19.7c1.7-2.7,4.4-8.5,7.8-4.1c0.7,2.8-7.8,16.1-8.6,20.4
		c-0.2,1.1-0.7,1.7,0.6,2.6c3.4,2.1,30.2-2.4,36.5-2.6c2-0.1,10.3-0.8,9.5,2.5c-0.7,3.2-14,2.2-16.5,2.5c-6.4,0.7-12.7,2.2-19,3
		c-5.3,0.6-12.6-1.7-16.5,3.5c-2.5,3.3-6.8,16.8-8.4,21.6c-5.4,15.4-12.2,37.3-12.6,53.5c-0.3,12.1,7.5,2.9,11-1.1
		c8.8-10.1,16.1-23.8,24.6-34.4c2.7-3.3,8.7-7.7,10.5-10.6c1.8-2.9,1.7-10.1,7-8c-1.5,12.7-11,24.5-11,37.5c2.9,0.6,1.6-1,2.2-2.2
		c3-5.6,5.6-12.6,9.4-17.7c3.1-4.1,8.8-9.7,14.1-7.5c5.9,2.5,3,16.2,19.7,2.3c4.8-4,4.3-6.2,6.8-9.7c1.7-2.3,6-3.6,5.5,0.9
		c-0.3,2.9-11.5,22-4.3,22.5c0.9,0.1,6.8-4.7,8-5.8c7.1-6,14-16,20.5-21.5c10.7-8.9,2.6,12.6,2.2,15.2c-0.9,4.8-2,13,0.2,17.3
		c3.2,3.2,13.1-4.7,16-7c16.8-13.9,13.2-22.2,22.2-37.8c1.2-2.1,2.6-4.9,5.4-4.1c1.7,1.7-7.2,22.1-8.5,26
		c-1.3,4.2-6.3,20.3-6.5,23.6c-0.1,1.7-0.1,2.3,1.4,3.4l11.1-18.9c5.2-4,8.4-14.5,16.4-12.6c5.1,2.6-1.4,19.8,4.5,23.5
		c3.5-3.6,10.1-11.8,15.1-12c5.6-0.2,5.3,7.1,8,8.9c4.5,3.2,9.3-0.2,12.9-2.9c2.2-1.7,10.3-10.1,11.8-10.7c1.5-0.6,3.2-0.2,4.7-0.3
		c3.4,2.9-18,18.7-21,19.5c-11.2,3-10.4-2.4-17.5-7.5c-5.6,0.9-13.5,15.7-19.6,11.6c-0.4-0.3-2-3.7-2-4V219.2z M692,209.2
		c-7.5,1.3-11.5,8.5-14.9,14.5c-0.7,1.2-1.4,2.1,0.5,2.5C682,225.8,696.6,213.7,692,209.2z M455,240.2c-2.4-2.3-11.6,9.8-12.9,11.9
		c-0.4,0.6-2,0.7-1.1,3.1C442.7,257,457.6,242.7,455,240.2z M342,276.2c7.4,3.7,26.9-19.7,26-23.5c-0.4-1.8-2.3-1.4-3.7-0.8
		c-3.4,1.6-20.4,15.2-21.8,18.2C341.7,272.1,342,274.2,342,276.2z"/>
	<path d="M391.8,20.9c-1.4,1.4-6.1,1.7-8.1,1.1c-2.8-0.9-3.8-6.6-6.9-8.1c-7-3.4-17.7-0.7-25.2-0.7c-16.3,0.1-32.7-0.2-49,0
		c-9.2,1.7-9.5,26.1,1.4,27.5c22.4,2.1,46.4-1.3,68.6,0.4c13.9,1.1,19.7,9,20.5,22.5c0.8,13.2-4.5,25.2-18.5,27.6
		c-22.5-1.7-47.9,2.1-70,0c-6.7-0.7-14.4-4.4-17.3-10.6c-2.4-5.1-3.7-9.1,3.3-9.4c8.2-0.4,5.7,7.7,14.1,9l68.9,0
		c10.6-1.7,12.1-24.7,0.8-27.7c-21-1.5-42.9,1.1-63.8-0.2c-13.2-0.8-23.7-3.8-25.4-18.6c-1-9.2-0.9-19.8,6-26.7
		c5-4.9,11.5-5.3,18.3-5.7c18.9-1.1,41.3-1.4,60,0c6.8,0.5,13.4,1.7,17.9,7.2C389.4,10.6,394.3,18.5,391.8,20.9z"/>
	<path d="M133.5,91.2c-3.2-1-1.5-5.7-1.6-7.4c-2-20.6-2.5-53.5-0.9-74.2c0.2-2,0.7-6.7,2-8l99.1-0.1c1.3,1.7,2.7,10.1,0.3,10.6
		c-3.4-0.8-6.7,0.8-9.7,0.9c-23.8,0.2-49.3-3.1-73.2-0.9c-2.1,0.2-5.5,0.4-6.3,2.7c-0.6,1.8-0.6,19.1-0.2,21.9c0.2,1.7,0.4,3,2,4
		l75.5,0.5c5.5,0.4,4.1,11,0,11h-76l-1.5,1.5v25l1.5,1.5h87c3.2,0,1.9,9,1.5,11H133.5z"/>
	<path d="M939,91.2c-0.5-1.8-0.9-3.5-1-5.5c-2-25.7,1.7-54.1,0-80.1l2.3-3.7l99.2,0.1c5,14.7-7.4,10.1-15.9,10.1
		c-21-0.1-47.7-1.8-68.1,0c-2.1,0.2-5.5,0.4-6.3,2.7c-0.6,1.8-0.6,19.1-0.2,21.9c0.2,1.7,0.4,3,2,4l75.5,0.5
		c7.3,4.8,4.4,10.4-4,10.9c-17.7,1.1-36.9,0.1-55,0.1c-5.6,0-13.2-2.4-18.5,1.5v25l1.5,1.5h88c2.9,0,3,9.8,0,11H939z"/>
	<path d="M1635.5,12.2c-0.3,0.1-1.8,1.6-2,2c-0.8,1.8-1,20.8-0.5,23.5c0.3,1.3,0.7,2.3,2,3l75.5,0.5c4.1,0.7,2.1,6.2,2.5,9.3
		c-0.6,2.3-15.3,0.5-18.6,0.6c-2.8,0.1-5.3,1-7.9,1.1c-17.3,0.4-34.6-0.3-51.9-0.1c-0.7,0.2-1.7,2.3-1.7,2.5v24l1.5,1.5h88
		c3,2.8,1.3,7.6,0.5,11h-98.5c-0.8,0-2.9-3.2-2.5-4.5c2.3-25.6-2.9-56.1,0-81.1c0.5-4.1,2.8-4.2,6.5-4.5l94.1,1
		c2.1,1.7,2.3,8.4-0.1,10.1H1635.5z"/>
	<path d="M615,65.7c-0.7-4-5.6-7.8-9.6-8.4l-72.7,0.1c-1.6,0.5-2.4,1.7-2.7,3.3c-1.4,7.5,1.7,21.1-0.2,27.8
		c-1.1,3.6-6.9,3.1-9.9,2.3c-2.9-12.6-0.8-25.3-0.9-38.1c-0.1-15.3-0.7-30.7-0.7-45.8c0-1,0.4-4.3,1.3-4.7c2.3-0.1,4.5-0.8,6.8-1
		c20.8-1.6,54.1-1.4,75.1,0c9.3,0.6,16,1.3,21.3,9.7c4,6.3,4.1,21.4,3.1,28.8c-0.6,4.4-5,9.4-5,12.1c0,2.5,5.1,9.4,5.1,11v27
		l-1.7,1.3c-1.3,0.3-2.6,0.2-3.8,0.2c-2,0-4.2,0.3-5.5-1.6C614.2,82.4,616.3,72.5,615,65.7z M530,14.7v30l1.5,1.5h77
		c7.2,0,7.4-21.3,6.3-26.3c-2.2-9.5-14.1-5.8-21.3-7.8c-14.2,1.5-28.7,1.4-43.1,1.1C544.2,13.1,535.4,9.6,530,14.7z"/>
	<path d="M5.8,1.4c24.6,1,51.5-2.1,75.8-0.3c14,1.1,26.9,11,28.5,25.5c1,9.3,1,38.9-2.3,46.7c-4.2,10.2-13.4,16.7-24.2,17.8
		c-24.4,2.4-52.3-1.8-77,0.1c-3.6,0.1-5-1-5.5-4.5C-2.2,62.2,3.5,30.8,1,5.6C0.7,2.4,3.2,2,5.8,1.4z M13,14.7v64l1.5,1.5h70
		c0.5,0,8.6-4.6,9.5-5.5c2.5-2.5,3.6-6.6,4-10c0.9-8.5,1.1-30.7-0.1-38.9c-0.7-5-6.7-11.5-11.6-12.4c-14-2.5-53.5-2.9-67.8-1.3
		C16.3,12.4,14.6,12.9,13,14.7z"/>
	<path d="M747.7,12.5c7.1,9.8,6.4,39.7,5.3,52.2c-1.2,15-11.5,25.1-26.5,26.5c-13.5,1.3-41.5,1.3-55,0c-10.5-1-20.1-6.7-24.2-16.8
		c-3.4-8.4-3.2-36.8-2.3-46.7c1.1-11.1,8-21.6,19-25c9.7-3,47.9-2.3,59.6-1.5C733.1,1.8,741.9,4.5,747.7,12.5z M678.8,12.5
		c-9.6,0.7-18.1,0.8-21.5,11.5c-2.1,6.4-2.2,33.4-1.3,40.7c0.8,6.2,6.3,12.9,12.3,14.7c6.6,1.9,48.8,1.7,57.2,0.8
		c6.4-0.7,12.2-4.3,14.5-10.5c3.3-8.5,3-39.3-0.3-47.8c-3.3-8.5-12.1-9.3-20.2-9.8C707.4,11.4,691,11.6,678.8,12.5z"/>
	<path d="M799.8,1.5c12-1.1,51.1-2,61.2,1.2c7,2.2,16,12,18,19c1.9,6.4,1.8,37.4,1,45c-1.6,13.5-13.6,23.2-26.5,24.5
		c-13.6,1.3-42.4,1.3-56,0c-11.4-1.1-23.8-10.9-25.4-22.6c-1.1-7.7-1.2-38.4,0.1-45.7C774.8,9.3,787.2,2.6,799.8,1.5z M803.8,12.5
		c-3,0.2-8,0.5-10.5,1.5c-3.4,1.3-9.3,7.4-10.1,10.9c-1.2,5.4-1,34.6-0.1,40.7c0.8,6,6.4,12.1,12.2,13.8c6.8,2,47.5,1.7,56.3,0.8
		c9.9-1,16.4-7.7,17.5-17.5c0.8-7.4,0.8-33.3-1.5-39.5c-2.9-7.9-11.4-10.4-19-11C835.9,11.2,816.5,11.4,803.8,12.5z"/>
	<path d="M1074,88.7c-0.8,2.9-6.8,2.9-9.4,2.4c-4.7-3.6-1.4-9.2-1.5-13.4c-0.8-23.1-2.6-47-0.2-70.1c0.2-2.4-2.5-5.4,2.8-6.2
		c2.2-0.3,5.4,1.3,7.2,2.4l82.1,66.9l4,0.5V3.7c2.8-3.2,11.2-3.3,12,1l-0.7,84.3c-2,4.4-8.2,1.8-11.2-0.3l-82.7-67.3l-2.4,1.4V88.7z
		"/>
	<path d="M1500,88.7c-0.1,0.5-1.1,2.4-1.7,2.5l-7.7-0.2c-4-3-1.5-7.4-1.6-11.3c-0.2-24.2-1.4-48.7-0.7-72.9c0.2-8.4,6.8-5.6,12-2.5
		l82.1,66.9l2.6-0.6l1-67.7c1-2.1,7.4-1.3,9.4-0.9c0.8,0.6,1.2,3.7,1.2,4.8c0.8,23.9-0.3,48.7-0.7,72.9c-0.1,2.9,2.2,9-0.9,11
		c-6,4.1-19.2-11-23.6-14.5c-19.4-15.5-38.5-31.7-58-47c-4.1-3.2-8.7-7.1-13.5-9V88.7z"/>
	<path d="M1472,91.2c-2.7-0.2-5.8,0.4-8.4-0.1c-7.8-1.2-11.8-19-19-20l-69,0.1c-5.4,1-11.4,17.6-15.5,19.5c-2.2,1-11.1,1.6-11-2
		l57-85.1c7.9-5.8,12.5,5,16.5,10.6c14.5,20.8,31.3,44.2,44.4,65.6C1468,81.7,1473.5,89.7,1472,91.2z M1409.7,19.3
		c-2.3,0.6-23.6,34.1-26.2,38.9l4,2c7.2-1.4,45.1,1.9,48.6-0.5c2-1.4,0.7-4.3-0.2-5.9c-2.6-5-18.3-28.3-21.9-32.1
		C1412.8,20.4,1411.9,18.7,1409.7,19.3z"/>
	<path d="M1238,38.7c1.8,2.2,3.9,2.3,6.5,2.5c17.4,1.6,52.7,1.6,70.1,0c9.6-0.9,6.3-7.5,6.5-14.5c0-2,1-3.8,1-6
		c0-6-5.2-19.2,4.5-19.6c4.9-0.2,5.6,2.7,6.2,6.8c2.1,13.7-0.6,28.9-0.8,42.7c-0.2,10.8,1.8,24.9,0.8,34.8c-0.2,2.5-1.7,5.2-4.3,5.7
		c-10.3,2.1-6.3-9.4-6.4-15.4c-0.1-2-1.1-3.9-1.1-6.1c-0.1-5.6,1.6-11.6,0-17.4l-81.2-0.1c-0.7,0.2-1.7,2.3-1.7,2.5v35
		c-1.5,2-5,1.9-7.3,1.3c-6.9-2-2.6-16.2-2.6-21.3c0-16.8-1.4-34.2-1.1-51c0.1-6.1-1.7-20.4,8.3-17.3c0.7,0.2,2.7,1.9,2.7,2.3V38.7z"
		/>
	<path d="M1302.8,142.4c8.4,6.7-6.5,32-11.3,38.6c-4.7,6.4-10.8,11.2-15.4,17.6l1.7,2.3c9.9-0.1,19.5,5.9,19.2,16.6
		c-0.2,5.9-7.9,22.3-11.1,27.9c-5.1,8.9-20.2,28.8-29.6,32.4c-9.6,3.8-18.9-0.9-14.9-11.9c2.6-7.1,13-17.9,18.6-23.3
		c8.4-8,20.5-15.3,28.1-22.9c6.1-6.2,0.6-12.6-6.6-13.5c-11-1.4-17.4,6.6-23.9,7c-1.3,0.1-1.6,0-1.8-1.4c-0.5-1-0.7-1.6-0.3-2.7
		c0.7-1.8,13-11.1,15.6-13.5c8.2-7.9,15.6-15.6,21.4-25.6c2.1-3.6,12.3-22.1,5-23.8c-2,0.4-4.2,0.8-6.1,1.6
		c-18.5,8.2-43.9,57.3-53,76c-2.4,4.8-10.1,27.3-14.8,27.3c-3.1-0.6-3.3-3.9-3.5-6.5c-1.6-17.5,13.4-73.9,21-91.1
		c2.3-5.1,6.3-7.2,5.6-0.5c-1.2,11.6-11.1,32.5-14.3,45.8c-2,8.4-5.5,22.7-6.2,30.8c-0.2,2.1-0.6,3.9,1.4,5.4
		c13.3-24.7,24.8-52.6,42.5-74.5C1275.5,154.1,1293.1,134.7,1302.8,142.4z M1271.6,257.8c3.4-4.2,15.2-22.2,16-26.6
		c1.3-6.7-7,0.4-9.1,2c-6.9,5.4-29.9,26.7-32.1,33.9c-2.9,9.7,4.7,7.5,10.4,4.4C1259.9,269.9,1269.2,260.8,1271.6,257.8z"/>
	<path d="M448,14.7c-1.1-3.5-7.2-1.3-9.5-1.4c-8.5-0.6-15.1,0.4-23,0c-2.4-0.1-10.7-0.9-11.3-2.7c-1.8-5.3-0.1-8.9,5.3-9.4
		c28.3-2.8,61.8,1.8,90.6,0.5c4.5,0.1,4.9,5.7,3.8,8.9c-0.8,2.2-7.1,2.5-9.3,2.7c-9.5,0.7-21.9-2.2-30.1-1.1
		c-1.3,0.2-4.4,1.3-4.4,2.5v74c-2.4,3.6-12,3.6-12-1V14.7z"/>
	<path d="M1351,194.2c0.5,1.9,1,2.9,0.6,5c-1.2,7.2-9.8,19-11.4,27.7c-0.3,1.8-1,7.8,1.3,8.3c5.9-1.8,10.1-5.3,14.7-9
		c2.8-2.2,9.7-8.1,11.8-10.5c2.6-2.9,3.1-7.2,6.5-9.5c2.7,0.2,2.6,2.1,2.3,4.2c-1.5,8.9-11.7,21.4-11.8,31.7l3-0.7
		c2.2-6.4,14.4-29.1,23-24.8c2,1,3.6,6.3,5.4,7.6c6.5,4.7,13.7-7.3,20-8.1l1.5,2.5c-5.8,5.8-14.7,15.8-23.3,10.3
		c-6.8-4.3-5.8-11.5-13.5-1.1c-4.3,5.8-15.4,32.1-19.2,33.8c-6,2.8-5.5-5.1-5-9c0.7-5.7,5.2-14.8,5.8-20.2c0.1-1.3-0.1-3-1.3-3.3
		c-2.9-0.6-23.2,21.1-26.3,7.3c-1-4.4,0.9-7.7,0.8-11.8c0-1.5,0.7-2.9-1.5-2.5c-4.7,3.6-18.8,21.2-23.8,20.8
		c-6.1-0.4-3.4-11.6-1.9-15.5c2.1-5.7,10.8-18.8,16.9-20.1c4.9-1.1,8.8,3.1,12.6,0.9C1340.1,207.1,1348.4,192.2,1351,194.2z
		 M1330.8,213.4c-2.7-2.6-8.4,2-10.4,4.1c-1.9,1.9-9,14.9-7.4,16.6c2,0.4,2.7-0.4,4-1.5c2-1.4,14.1-14.9,14.5-16.4
		C1331.8,215.4,1331.5,214,1330.8,213.4z"/>
	<path d="M248.5,213.2c0.4,0.1,2.3,1,2.6,1.7c1.6,7.3-14.1,5.4-18.6,5.4c-69.2-0.6-139.4-1-208.9,0c-1.1,0-10.1-0.7-10.5-1.1
		l1.4-5.9H248.5z"/>
	<path d="M1482.8,216.4c19.1-2.4,39.7,0.7,58.7,0.8c45.3,0,90.7-1.5,136.1-1.1c13.8,0.1,29.7-0.6,42.9,0c3.7,0.2,14.5,0.3,8.8,5.9
		c-80.6,1.3-161.3-1.1-241.9,0.1c-5.1,0.1-10.1,3.8-11.5-3.4C1476.3,217.3,1481.4,216.6,1482.8,216.4z"/>
	<path d="M1135,160.2c1.5,5.9-7.7,14.7-4.1,19.6c1.7,2.3,7.7,1.7,4.6,6.5c-1.1,1.7-6.2-0.3-8.9,0c-8.4,0.8-25.3,13.9-19.4,23.7
		l16.7,5.8c-0.3,5.1-5.9,4.1-9.8,6c-5.4,2.6-16.6,12.5-16.2,18.9c0.8,13.2,25-2,30-6.1c2.3-1.8,2.3-5.6,7.1-4.4
		c-0.4,6.9-7.2,11.4-12.7,14.8c-6.6,4.2-9.3,2-12.6,11.4c-0.6,1.8-3.2,19.6-5.7,17.8c-2.8-7.3,0.6-14.4,0.3-21.7l-1-1.3
		c-17.1-3.5-12.1-14.6-3.3-24.5c1.5-1.7,8.8-7.5,8.9-8.1c0.8-3.2-3.5-3.7-4.8-4.9c-6.6-5.9-1.9-16.8,3.3-22.1
		c3.6-3.7,12.3-7.4,15.1-10.4C1127.9,175.2,1126.5,161.2,1135,160.2z"/>
	<path d="M913,88.7c-1,3.5-10.7,4-11-1c-0.1-23.3,0-46.7,0-70c0-4.5-1.7-8.6,0.2-13.7C904-0.9,913,0.7,913,4.7V88.7z"/>
	<path style="fill:#FFFFFF;" d="M342,276.2c0-2-0.4-4.1,0.5-6c1.4-3,18.4-16.6,21.8-18.2c1.4-0.7,3.3-1.1,3.7,0.8
		C368.9,256.5,349.4,279.9,342,276.2z"/>
	<path style="fill:#FFFFFF;" d="M692,209.2c4.7,4.5-10,16.6-14.4,17c-1.9-0.4-1.2-1.3-0.5-2.5C680.5,217.7,684.5,210.4,692,209.2z"
		/>
	<path style="fill:#FFFFFF;" d="M455,240.2c2.6,2.5-12.3,16.8-14,15c-0.9-2.4,0.8-2.5,1.1-3.1C443.4,250,452.7,237.8,455,240.2z"/>
	<path style="fill:#FFFFFF;" d="M530,14.7c5.4-5.1,14.1-1.6,20.5-1.5c14.3,0.3,28.8,0.4,43.1-1.1c7.2,2,19.1-1.7,21.3,7.8
		c1.1,5,0.9,26.3-6.3,26.3h-77l-1.5-1.5V14.7z"/>
	<path style="fill:#FFFFFF;" d="M13,14.7c1.5-1.8,3.2-2.3,5.5-2.5c14.3-1.7,53.8-1.2,67.8,1.3c5,0.9,10.9,7.4,11.6,12.4
		c1.2,8.2,0.9,30.4,0.1,38.9c-0.3,3.4-1.5,7.5-4,10c-0.9,0.9-9,5.5-9.5,5.5h-70L13,78.7V14.7z"/>
	<path style="fill:#FFFFFF;" d="M678.8,12.5c12.2-0.9,28.6-1.1,40.7-0.3c8.1,0.5,16.9,1.3,20.2,9.8c3.3,8.5,3.6,39.3,0.3,47.8
		c-2.3,6.1-8.2,9.7-14.5,10.5c-8.4,0.9-50.6,1.2-57.2-0.8c-6-1.8-11.5-8.5-12.3-14.7c-0.9-7.4-0.8-34.3,1.3-40.7
		C660.8,13.3,669.3,13.1,678.8,12.5z"/>
	<path style="fill:#FFFFFF;" d="M803.8,12.5c12.7-1,32.1-1.3,44.7-0.3c7.6,0.6,16.1,3.1,19,11c2.3,6.2,2.3,32.2,1.5,39.5
		c-1.1,9.8-7.5,16.6-17.5,17.5c-8.7,0.9-49.5,1.2-56.3-0.8c-5.8-1.7-11.4-7.8-12.2-13.8c-0.8-6.1-1.1-35.3,0.1-40.7
		c0.8-3.6,6.7-9.7,10.1-10.9C795.9,13,800.9,12.7,803.8,12.5z"/>
	<path style="fill:#FFFFFF;" d="M1409.7,19.3c2.1-0.5,3.1,1.2,4.3,2.4c3.6,3.8,19.3,27.1,21.9,32.1c0.9,1.7,2.2,4.6,0.2,5.9
		c-3.5,2.4-41.4-0.9-48.6,0.5l-4-2C1386.2,53.3,1407.5,19.8,1409.7,19.3z"/>
	<path style="fill:#FFFFFF;" d="M1271.6,257.8c-2.5,3.1-11.7,12.2-14.7,13.8c-5.7,3.1-13.3,5.3-10.4-4.4
		c2.2-7.2,25.2-28.6,32.1-33.9c2.1-1.6,10.3-8.6,9.1-2C1286.8,235.6,1275,253.6,1271.6,257.8z"/>
	<path style="fill:#FFFFFF;" d="M1330.8,213.4c0.6,0.6,1,2,0.8,2.8c-0.4,1.5-12.5,15-14.5,16.4c-1.4,1-2,1.9-4,1.5
		c-1.7-1.8,5.5-14.7,7.4-16.6C1322.4,215.4,1328.2,210.8,1330.8,213.4z"/>
</g>
</svg>
