<?xml version="1.0" encoding="UTF-8"?>
<svg id="Layer_1" xmlns="http://www.w3.org/2000/svg" version="1.1" viewBox="0 0 2249.8 237.7">
  <!-- Generator: Adobe Illustrator 29.6.1, SVG Export Plug-In . SVG Version: 2.1.1 Build 9)  -->
  <path d="M2249.8,96.5c0,20.7-13.6,38.1-37.7,38.1s-37.6-17.4-37.6-38.1,13.6-38,37.6-38c24.1,0,37.7,17.4,37.7,38M2212.2,126.8c18.2,0,28.6-13.4,28.6-30.3s-10.3-30.2-28.6-30.2-28.4,13.4-28.5,30.2c0,17,10.3,30.3,28.5,30.3M2221.3,101.9c14.1-3.2,11.2-24.7-5.9-24.7h-18.5v38.7h10.2v-12h3.6l9.2,12h11v-2.2l-9.6-11.8ZM2215.4,86.4c6,0,6,8.9,0,8.9h-8.2v-8.9h8.2ZM1285.2,190.8c0,17.8-17.7,31.6-37.7,28.8,5.1,4.8,17.5,8,24.1,5-3.8,6.8-21.9,16.5-39,11.9-16-4.3-23-19.5-23.4-29.3-7.6,7.6-5.5,19.9-.1,24.7-6.2-1.6-15.7-8.1-17.2-19.8-1.4-10,4.2-21.4-6.2-30.6-6.2-5.5-15.7-13.3-21.9-18.1-12.9-10.1-8-17.5-10.9-22.8-2.2-4.1-7.6-6.4-10.9-10.2s-3.1-9.4-1.3-12.6c-.6,4.5,2.7,7.9,7,9.3,4.7,1.6,8.8.3,12.8,2.6,4.9,2.8,2.6,10.4,6.1,13.1,3.2,2.4,11.1-.8,17.8,4.6,6.8,5.4,22,18.1,28.5,23.5,11.7,9.7,23.9-1.4,19.9-12.4,11.9,7.1,13.3,26.9,3.3,33.8,9.4,2.1,26.3-2.1,26.3-15.6s-7.7-14.2-13.1-15.1c19.2-1.8,36,11.7,36,29.1M1083.4,87.4c1.2-4.6-8-12.4-11.3-14,12.5-.5,18.7,1.9,18.7,1.9-3.3-4.8-4.3-12.2-2.5-18,6.9,16.4,31.2,19,37.3,32.6-.9-5.9-6.4-12.4-12.8-16.3-3.5-8.9-.9-25.3,3.3-29.9-1.5,23.6,32.2,37.1,39.3,54.3-4.1-14.7-19.8-24-27.3-32.8-2.5-5.8-.6-15.7,2.1-19.1-.8,15.8,16.3,28.2,25.4,37,10.7,10.4,13.8,19.6,12.3,27.2,2.4.6,5.6,2.9,5,6.8,3.4-.8,7-4.7,7.8-7.2,1.7,11.7-5.2,24.2-12.9,27.9,0,0,2.1-5.6-1.5-9.9-3.5-4.2-13.4-4.3-16.7-4,0,0,4.1-6.1,2.5-9.2-2-3.8-21.3-2.1-30,1,2.9-.3,9.9.5,12.3,1.5-1.4,2-4.9,10.5-2.4,13.1,2.4,2.3,5.4-1.7,5.4-1.7,0,0-3,9.3-.9,11.5,2.2,2.1,6.8.6,6.8.6-2.9,7.3-14.1,12.3-22,12.3,2.8-.9,7.4-5.9,8.1-8.9-2.1,1-7.4,1.6-9.5,1.3,2.6-1,7.7-7.6,6-14.9-2.3-10.7-17.3-12.1-24.8-6.9,2.4-7.2,9.7-14,15.4-16.2-3.3-1.2-7.3-2.2-11.4-2.9,4.8-3.9,16.8-7.1,22.9-6.8-9.3-2.4-26.5.6-34.3,9.8,2.5,0,9,1.2,11.4,2-10.8,2-25.4,11.9-29.7,16.7,1.2-6.2,2.9-11.5,1.4-15.2-2.1-5.2-8.5-7.5-21.2-4.8,8.6-8.7,26.1-14.1,27.4-18.7M1157.2,110.2l-1.2-3.8c-.1-.4-3.1-9.7-13-13.4l-5.4-2,1.6,5.6c1.4,4.8,3.9,13.6,14.1,13.6h4ZM772.5,122.6c0,36.8-29.3,64.5-68.1,64.5s-67.5-26.8-67.5-63.7,28.2-64.6,67.1-64.6,68.5,27.5,68.5,63.8M736.6,122.6c0-20.4-12.9-33.6-32.9-33.6s-31.1,13.2-31.1,34.4,12.6,33.7,32.1,33.7,31.9-14.2,31.9-34.6M136.7,122.6c0,14.5-4.7,28.7-13,39-3.6,4.6-8.1,8.7-13.4,12.2-12.3,8.3-23.7,11.3-42,11.3H3.2l2.8-1.6c0,0,8.1-4.7,11.8-7,3.6-2.2,5.1-4.3,5.1-12v-72c0-7.9-2.2-10.1-5.2-12.3C1.6,68.6.2,55.2.2,54.6l-.2-1.8,1.5,1c0,0,5.4,3.5,11.3,4.8,6.9,1.6,16.3,1.9,36.1,1.9h25c12.5.6,21.6,2.9,30.6,7.6,20.1,10.5,32.1,30.9,32.1,54.5M100.5,122.9c0-20.4-10.5-32.1-28.9-32.1h-14v64.1h14c18.3,0,28.9-11.6,28.9-31.9M964.8,105.4l-5-1.2h-.5c-11.8-2.9-19.6-5.1-19.6-10.2s.5-3.1,1.5-4c2.1-2.1,6.4-3.3,12.2-3.3s2,0,3,.1h.4c.2,0,.4,0,.6,0,10.7,1,23.5,5.6,36.6,14.3l-2-36.8-2.4-.8-.5-.2c-.2-.1-1.6-.6-5.7-1.5-2.5-.6-15.1-3.3-22.7-3.8-2.5-.2-4.9-.3-7.2-.3-27.7,0-44,13.2-45.7,37.1-.9,11.9,5,23.6,15,29.7,8.9,5.4,22.1,9.5,31.8,12.4l2.2.7c6,1.9,13,5.6,12,12.8-.5,3.8-2,7.9-13.4,7.9s-3.5-.1-5.4-.3c-7.9-.7-17-5.2-27.2-13.3-.4-.4-.8-.6-1-.8l-6.3-4.8-6.4-4.9,2.6,46.6,2.5.8.4.2c.1,0,1.4.5,5.6,1.4,4.2.9,17.9,3.3,24.9,3.8,2.3.2,4.6.3,6.9.3,30.3,0,50.3-15.1,50.9-38.4.7-22.4-12.2-37.1-38.1-43.7M602.4,154.9h-28.3v-18.2h26.5c3.5,0,7.2-.1,9.3,1,2.5,1.2,4.2,3.7,4.2,3.8l1.3,1.9v-39.9c0,0-1.1.6-1.1.6,0,0-1.7,1.1-3.1,1.7-1.3.5-2.1.8-7.8.8h-29.3v-15.6h29.3c7.5,0,9.2.7,13.5,3.7l7.3,5.5-3.8-39.5h-99.7l2.7,1.6c0,0,6.9,4.2,10.9,7,3.8,2.5,5.2,4.2,5.2,12.3v83.1c0,8.2-1.3,9.6-5.1,12s-11.7,6.9-11.7,7l-2.8,1.7h103.4l9.3-41.6s-8.3,6-10.7,7.5c-4.6,2.8-8.2,3.8-19.3,3.8M408.5,60.6h-70.6l2.7,1.6c0,0,6.9,4.2,10.9,7,3.8,2.5,5.2,4.2,5.2,12.3v30.2l-52.1-51h-81.9c-2.4,0-5,1.5-5.1,1.6l-.8.5.6.8s1.8,2.5,2.9,4.1c.8,1.3,1.3,2.1,1.4,5.5v64.1c-.2,13.4-6.1,20.2-18.7,20.2s-19.3-7.1-19.3-20.8v-63.5c0-3.3.5-4.2,1.3-5.5,1.1-1.7,2.9-4.1,2.9-4.1l.6-.8-.9-.5c-.1,0-2.7-1.6-5.1-1.6h-52.4l2.7,1.6c0,0,6.8,4.2,11,7,3.8,2.5,5.2,4.2,5.2,12.3v51.4c0,11.3,1.4,20.4,3.9,26.3,1.9,4.2,4.7,8.2,8.8,12.3,10.7,10.5,24.2,15.7,41.2,15.7s42.2-10.7,49.6-28.6c2.9-7,3.8-13.2,3.8-24.7v-52.4c0-8.1,1.5-9.8,5.2-12.3,2.3-1.5,5.2-3.3,7.5-4.8,2.1,1.4,4.8,3.2,6.8,4.6,3.6,2.6,5.3,5.3,5.3,13.4v82.1c0,8.1-1.5,9.8-5.1,12-4,2.4-11.7,6.9-11.7,7l-2.8,1.7h70.8l-2.9-1.7c-.1,0-8-4.6-11.7-7-3.5-2.2-5.1-4.1-5.1-12v-49.5l75.7,74.1v-107.8c0-8,1.4-9.7,5.2-12.3,4.2-2.8,11.9-6.9,12-6.9l3.2-1.6ZM913.3,60.6h-70.6l2.6,1.6c.1,0,6.9,4.2,10.9,7,3.8,2.5,5.2,4.2,5.2,12.3v30.2l-52.1-51h-41.5l2.5,1.6c0,0,6.4,4.2,10.1,6.9,3.6,2.6,5.3,5.3,5.3,13.4v82.1c0,8.1-1.5,9.8-5.1,12-4,2.4-11.7,6.9-11.8,7l-2.9,1.7h70.8l-2.9-1.7c-.1,0-7.9-4.6-11.7-7-3.6-2.2-5.1-4.1-5.1-12v-49.5l75.7,74.1v-107.8c0-8,1.3-9.7,5.2-12.3,4.2-2.8,11.9-6.9,12-6.9l3.3-1.6ZM519.9,177.9c0,0-1.9-2.5-2.9-4.2-1-1.5-1.5-2.7-1.5-7.9v-33.6c0-5.1.5-6,1.4-7.6,1.1-1.7,2.9-4.1,2.9-4.2l.6-.8-.9-.5c-.1,0-2.4-1.3-5-1.6h-53.1l2.7,1.6s7.8,4.8,11.3,7c3.4,2.2,5.2,4.6,5.2,12v18.3c-3.9,1.3-8,1.8-12.8,1.8-21.4,0-32.2-11.5-32.2-34.3s11.9-34.1,32.5-34.1,26.6,3,43.2,15.5v-.9c-.1,0-3.9-36-3.9-36l-.3-2.7-2.6-.6-2.5-.6c-11.1-2.6-15.4-3.3-22-4.1-3.9-.5-6-.7-10.9-.7h-2.1c-39,0-67.3,27.3-67.3,64.8s28.5,63.9,67.7,63.9,20.1-1.3,28.4-3c1.6-.4,2.5-.6,3.7-.9.3-.1.6-.2.8-.2,4.7-1.1,9.5-2.3,14.3-3.8l6.1-1.9-.6-1ZM1447.2,122.6c0,14.5-4.7,28.7-13,39-3.6,4.6-8.1,8.7-13.4,12.2-12.3,8.3-23.7,11.3-42,11.3h-65.1l2.8-1.6c0,0,8.1-4.7,11.8-7,3.6-2.2,5.1-4.3,5.1-12v-72c0-7.9-2.2-10.1-5.3-12.3-16.1-11.7-17.4-25.2-17.4-25.7l-.2-1.8,1.5,1c0,0,5.4,3.5,11.3,4.8,6.9,1.6,16.3,1.9,36.1,1.9h25c12.5.6,21.6,2.9,30.6,7.6,20.1,10.5,32.1,30.9,32.1,54.5M1410.9,122.9c0-20.4-10.5-32.1-28.9-32.1h-14v64.1h14c18.3,0,28.9-11.6,28.9-31.9M2133.9,105.4l-5-1.2h-.5c-11.8-2.9-19.6-5.1-19.6-10.2s.5-3.1,1.5-4.1c2.1-2.1,6.4-3.3,12.2-3.3s2,0,3,.1h.4c.2,0,.4,0,.6.1,10.7,1,23.5,5.6,36.6,14.3l-2.1-36.8-2.4-.8-.5-.2c-.2,0-1.6-.6-5.6-1.4-2.5-.6-15.1-3.3-22.7-3.8-2.5-.2-4.9-.3-7.2-.3-27.8,0-44,13.2-45.7,37.1-.9,11.9,5,23.6,14.9,29.7,8.9,5.4,22.1,9.5,31.8,12.4l2.2.7c6,1.9,13,5.6,12.1,12.8-.5,3.8-2,7.9-13.4,7.9s-3.4-.1-5.4-.3c-7.9-.7-17-5.2-27.2-13.3-.4-.4-.8-.6-1-.8l-6.3-4.8-6.5-4.9,2.6,46.6,2.4.8.5.2c.1,0,1.5.5,5.6,1.4s17.9,3.3,25,3.8c2.3.2,4.6.3,6.9.3,30.3,0,50.3-15.1,50.9-38.4.6-22.5-12.3-37.2-38.1-43.8M1941.5,122.7c0,36.8-29.3,64.5-68.1,64.5s-67.5-26.8-67.5-63.7,28.2-64.7,67.1-64.7c39,0,68.5,27.5,68.5,63.9M1905.7,122.7c0-20.4-12.9-33.6-33-33.6s-31.1,13.2-31.1,34.4,12.6,33.8,32.1,33.8,31.9-14.2,31.9-34.6M1685.9,176.9l10.5,8.3h-65.1s5.5-5.3,8-7.9c2.2-2.3,3.3-4.5,1.7-8.4-.4-1-1.1-3-2-5.5h-45.1c-.9,2.5-1.7,4.5-2.1,5.5-1.8,4.5-1.4,5.7,1.1,8.2,2.8,2.7,9.6,8.1,9.6,8.1h-68.3l-31.3-37.8h0c0-.1,0-.2,0-.2-3.4-4.7-6-7.3-8.4-8.6-.6-.3-1.3-.5-1.9-.6v26.6c0,7.8,1.5,9.2,5.2,12,3.8,2.9,14.8,8.6,14.8,8.6h-72.9s11.1-6.2,14.6-8.6c3.2-2.2,5.1-4.1,5.1-12v-82.9c0-7.7-1.7-10.1-5.2-12.2-3.6-2.3-11-6.9-11-6.9l-2.6-1.7h59.3c11.4.2,15.9.5,22.3,2.4,15.3,4.4,24.7,17.1,24.7,33.1s-2.1,14.4-6,20c-3,4.4-6.9,8-11.4,10.6,13,17.4,23.3,30.4,29.7,37.3.4-.8,37.7-90.8,37.7-90.8.1-.7.2-1.2.2-1.7s0-1.4-1.9-3.1l-8.8-8h49.1s40.9,103.6,41.2,104.3h0c1.2,2.6,1.5,3.1,2.6,4.9,1.7,2.5,2.3,3.4,6.9,7M1512.7,96.1c0-6.4-4.1-10.6-16.2-10.7h-4.2v29.1c1.8,0,3.5,0,4.1,0,7.9,0,16.2-1.8,16.2-18.4M1628.4,133.8l-11.2-30.6-12.2,30.6h23.4ZM2082.4,60.6h-70.6l2.7,1.6c0,0,6.8,4.2,11,6.9,3.8,2.5,5.2,4.2,5.2,12.3v30.2l-52.1-51h-41.5l2.5,1.6c0,0,6.4,4.2,10.1,6.9,3.6,2.6,5.3,5.3,5.3,13.4v82.1c0,8.1-1.5,9.8-5,12-4,2.4-11.7,6.9-11.8,7l-2.8,1.7h70.8l-2.8-1.7c-.1,0-8-4.6-11.7-7-3.5-2.2-5.1-4.1-5.1-12v-49.5l75.7,74.1v-107.8c0-8,1.4-9.7,5.2-12.3,4.2-2.8,11.9-6.9,12-6.9l3.1-1.6ZM1796,172.6c-1-1.5-1.5-2.8-1.5-7.9v-33.6c0-5.1.5-6,1.4-7.6,1.1-1.7,2.9-4.1,2.9-4.1l.6-.8-.9-.5c-.1,0-2.4-1.3-5-1.6h-53.1l2.7,1.7s7.8,4.7,11.3,7c3.4,2.1,5.1,4.6,5.1,12v18.3c-3.9,1.3-8,1.8-12.8,1.8-21.4,0-32.2-11.5-32.2-34.3s11.8-34.1,32.5-34.1,26.6,3,43.2,15.5v-.9c-.1,0-3.9-36-3.9-36l-.3-2.7-2.6-.6-2.5-.6c-11.1-2.6-15.4-3.2-22-4.1-3.9-.5-6-.7-10.9-.7h-2.1c-39,0-67.3,27.3-67.3,64.8s28.5,63.9,67.7,63.9,20.1-1.3,28.4-3c1.6-.4,2.5-.6,3.7-.9l.8-.2c4.7-1.1,9.5-2.3,14.3-3.8l6.1-1.9-.7-1c.1,0-1.7-2.5-2.8-4.1M1243.7,99.2c-26.9,1.3-49.8,24-61.7,40.2,2.1.7,4.3,1.7,6.4,3.4,2.5,2,6.1,5,10,8.2,3.2-7.1,10.4-21.3,21.4-33.9,10-11.5,27.6-12.6,36.7-5.6,5.9-5.3,26.3-10.4,37-7.3-6.5-7.1-20.4-16.6-35.8-16.6s-19.8,6.2-21.6,3.4c-2.3-3.6,8.6-8.9,8.6-8.9-15,.6-25.8,18.2-30.3,16-2.7-1.3,4-9.8,4-9.8-13.7,8-25.1,24.7-27.5,35,12.5-15.4,36.9-26.5,52.8-24.1M1162.1,170.3c-6.9,11.7-21.3,26.8-36,26.8-27.1,0-40.7-38.2-10.5-69.6-1.7-.6-3.4-.6-3.9-.6-2.6,0-5,.7-6.7,1.8l-13.4,11.5,3.8-18.7c.3-.7.5-1.3.8-1.9-6.7,3.4-13.2,8.1-15.7,10.8l-12.1,13.2,1.2-18.6.8-4.1c.6-2.9,1.4-6.5.9-7.7-.2-.4-.4-.7-.8-.9-5.6,4.3-20.9,17.8-22.7,37.8,0,0,3-4.2,5.5-5.2,1.7-.7,3.2.2,1.6,5.2-.6,2-15.5,42.1,13.7,69.9,0,0-3.2-8.2-1.3-10.6,1-1.2,2.2-1.3,3.9.9,1.2,1.7,2.5,3.3,3.9,4.8h0c2.4,2.8,5,5.4,8,7.6,8.7,6.1,20.6,11,34.1,11,35.9,0,55-24.6,65.6-45.4-.5-.6-.9-1.2-1.5-1.8-5.3-4.8-13.2-11.3-19.2-16.1M1081.3,67.3c-.5-4-.3-8.2,1-11.9l5.2-16.4,6.6,15.8c1.9,4.6,5.9,8,10.8,11-.4-7.6,1-16.1,3.7-21.9-.6-12.2,7.9-21.4,18-21.4,17.3,0,22,21,13.9,36,3.7,5.6,9.4,10.8,14.5,15.4,1.8,1.6,3.5,3.2,5,4.6.5.5.7.9,1.2,1.4,7.5-10.2,13-24.4,13-35.2,0-22.3-14.5-42.9-44.6-44.6-19.1-1-32,4.9-41.6,14.7-4.3,4.4-14,15.7-12.2,36,.7,7.7,3.3,13,5.5,16.5" style="fill: #010101;"/>
</svg>