<svg xmlns="http://www.w3.org/2000/svg" viewBox="0 0 420 418.9"><path d="M210 0C94 0 0 93.8 0 209.5S94 419 210 419s210-93.8 210-209.5S326 0 210 0zm-48.3 306.1c-53.4 0-96.7-43.3-96.7-96.7 0-53.4 43.3-96.7 96.7-96.7 26.1 0 47.9 9.6 64.6 25.2L199 165.1v-.1c-10.1-9.7-23-14.6-37.4-14.6-31.9 0-57.8 26.9-57.8 58.8s25.9 58.9 57.8 58.9c28.9 0 48.6-16.6 52.7-39.3h-52.7v-37.7h90.9c1.2 6.5 1.9 13.2 1.9 20.3.1 55.5-36.9 94.7-92.7 94.7zM355 221.6h-30.2v30.2h-24.2v-30.2h-30.2v-24.2h30.2v-30.2h24.2v30.2H355v24.2z"/></svg>