<svg xmlns="http://www.w3.org/2000/svg" width="22.948" height="22.943"><path d="M11.475 5.589a5.882 5.882 0 105.884 5.886 5.873 5.873 0 00-5.884-5.886zm0 9.707a3.824 3.824 0 113.826-3.821 3.831 3.831 0 01-3.826 3.821zm7.5-9.947A1.372 1.372 0 1117.6 3.975a1.369 1.369 0 011.375 1.374zm3.9 1.393a6.79 6.79 0 00-1.853-4.807A6.835 6.835 0 0016.215.082c-1.894-.108-7.572-.108-9.466 0A6.825 6.825 0 001.942 1.93 6.812 6.812 0 00.081 6.736c-.108 1.894-.108 7.572 0 9.466a6.79 6.79 0 001.853 4.807 6.843 6.843 0 004.807 1.853c1.894.108 7.572.108 9.466 0a6.79 6.79 0 004.807-1.853 6.835 6.835 0 001.853-4.807c.108-1.894.108-7.567.001-9.461zm-2.454 11.493a3.872 3.872 0 01-2.181 2.181c-1.51.6-5.094.461-6.763.461s-5.258.133-6.763-.461a3.872 3.872 0 01-2.181-2.181c-.599-1.511-.458-5.094-.458-6.76s-.133-5.258.461-6.763a3.872 3.872 0 012.181-2.181c1.51-.6 5.094-.461 6.763-.461s5.258-.133 6.763.461a3.872 3.872 0 012.181 2.181c.6 1.51.461 5.094.461 6.763s.135 5.254-.464 6.76z" fill="#fff"/></svg>