<?xml version="1.0" standalone="no"?>
<!DOCTYPE svg PUBLIC "-//W3C//DTD SVG 20010904//EN"
 "http://www.w3.org/TR/2001/REC-SVG-20010904/DTD/svg10.dtd">
<svg version="1.0" xmlns="http://www.w3.org/2000/svg"
 width="600.000000pt" height="600.000000pt" viewBox="0 0 600.000000 600.000000"
 preserveAspectRatio="xMidYMid meet">
<metadata>
Created by potrace 1.14, written by Peter Selinger 2001-2017
</metadata>
<g transform="translate(0.000000,600.000000) scale(0.100000,-0.100000)"
fill="#000000" stroke="none">
<path d="M2038 5407 c-86 -83 -220 -212 -297 -286 -147 -140 -148 -141 -109
-183 7 -7 33 -38 58 -68 25 -30 47 -57 50 -60 3 -3 52 -63 110 -135 58 -71
114 -141 126 -155 12 -14 75 -90 140 -170 65 -80 121 -147 124 -150 3 -3 21
-25 40 -50 19 -25 37 -47 40 -50 3 -3 24 -27 45 -55 22 -27 50 -61 62 -75 13
-14 48 -56 79 -95 31 -38 66 -81 77 -95 12 -14 38 -45 57 -70 19 -25 37 -47
40 -50 3 -3 53 -63 110 -135 58 -71 109 -135 115 -141 11 -13 64 -79 82 -103
6 -9 13 -14 16 -11 2 3 66 84 143 180 76 96 144 182 151 190 7 8 44 56 83 105
39 50 78 99 88 110 10 11 54 65 97 120 44 55 85 106 92 113 7 7 13 16 13 20 0
4 18 27 40 52 48 54 48 55 85 105 17 22 32 42 35 45 3 3 32 39 64 80 33 41 65
80 71 85 5 6 18 22 28 38 10 15 29 40 42 55 14 15 75 90 136 167 62 76 118
145 125 153 8 7 14 16 14 20 0 4 14 22 30 41 l30 34 -287 288 -288 289 -800 0
-800 -1 -157 -152z m387 134 c6 -1 63 -52 128 -115 l118 -114 -38 -28 c-21
-16 -40 -31 -43 -34 -3 -3 -21 -17 -40 -30 -19 -13 -37 -27 -40 -30 -3 -3 -43
-35 -90 -70 -47 -35 -87 -66 -90 -69 -3 -3 -20 -16 -37 -29 l-33 -23 -32 47
c-34 48 -161 221 -175 239 -4 6 -16 23 -27 39 l-18 29 95 92 c53 51 101 95
107 97 9 3 188 2 215 -1z m271 -103 c-5 -54 -12 -98 -15 -98 -4 0 -31 23 -61
50 -125 115 -150 139 -150 142 0 2 53 3 118 4 l117 0 -9 -98z m233 69 c-19
-15 -38 -31 -44 -35 -5 -5 -45 -36 -88 -70 -43 -34 -81 -62 -83 -62 -3 0 -2
24 2 53 3 28 6 72 6 97 l0 45 120 0 120 1 -33 -29z m347 21 c4 -4 8 -18 10
-30 2 -13 5 -32 7 -43 3 -11 8 -40 11 -65 3 -25 8 -55 10 -67 5 -26 3 -28 -16
-10 -7 6 -48 41 -92 77 -43 36 -95 80 -115 97 -20 18 -40 33 -44 33 -5 0 -6 4
-3 8 6 10 222 9 232 0z m314 4 c0 -4 -10 -14 -144 -137 -48 -44 -92 -81 -97
-83 -5 -2 -9 6 -9 17 0 25 1 18 -15 88 -8 32 -14 72 -15 88 l0 31 140 0 c77 0
140 -2 140 -4z m300 -109 l111 -111 -156 -156 -157 -156 -66 52 c-37 29 -74
60 -83 68 -8 8 -33 29 -54 45 -21 17 -43 35 -49 40 -6 6 -27 23 -48 38 l-36
28 46 44 c26 24 89 83 140 132 l94 90 73 -2 74 -1 111 -111z m-830 57 c3 -3
27 -24 55 -45 27 -22 85 -68 127 -103 l77 -63 -52 -46 c-29 -26 -74 -68 -102
-93 -27 -26 -70 -66 -95 -88 -52 -47 -34 -55 -170 74 -47 45 -111 105 -142
134 l-57 53 97 73 c53 40 120 91 147 112 l50 39 30 -21 c17 -11 32 -23 35 -26z
m-1031 -197 l24 -37 -37 -111 c-20 -60 -36 -116 -36 -122 0 -7 -6 -14 -12 -14
-38 -4 -304 -4 -311 -1 -13 6 324 331 337 326 6 -2 22 -21 35 -41z m2141 -136
c77 -76 140 -141 140 -145 0 -4 -58 -7 -130 -7 l-129 0 -48 105 c-26 58 -50
109 -54 114 -8 9 61 78 73 73 4 -1 71 -64 148 -140z m-1495 101 c-2 -18 -7
-76 -10 -128 -3 -52 -8 -102 -10 -110 -4 -14 -30 -16 -178 -14 -94 1 -174 3
-177 3 -2 1 13 13 35 28 22 15 45 32 51 37 6 6 23 20 38 31 15 11 75 57 134
102 59 45 110 82 114 82 5 1 6 -14 3 -31z m100 -45 c166 -157 213 -203 206
-206 -5 -3 -257 -1 -289 2 -10 1 -12 19 -8 84 3 45 7 106 8 135 0 28 4 52 7
52 3 0 38 -30 76 -67z m579 -43 c3 -19 7 -44 10 -55 2 -11 6 -40 10 -65 l6
-45 -160 0 c-88 0 -160 2 -160 6 0 3 33 35 73 71 39 37 101 94 137 127 l65 61
7 -33 c3 -17 9 -48 12 -67z m48 47 c14 -12 41 -33 58 -47 18 -14 37 -30 44
-35 44 -40 130 -105 138 -105 5 0 8 -6 6 -12 -6 -16 -213 -19 -234 -3 -7 5
-16 28 -19 50 -3 22 -8 47 -11 55 -3 8 -8 31 -10 50 -3 19 -7 43 -10 53 -7 23
6 21 38 -6z m-1222 -137 c4 -3 9 -12 13 -20 4 -8 13 -24 21 -35 15 -20 13 -20
-100 -20 l-114 0 4 25 c4 20 37 124 61 189 4 9 25 -13 57 -60 29 -41 55 -76
58 -79z m1790 39 c25 -55 46 -103 48 -107 1 -4 -67 -7 -150 -7 -84 0 -152 3
-150 7 5 11 196 208 202 208 3 0 25 -46 50 -101z m-2037 -139 c26 0 47 -5 47
-11 0 -5 9 -29 19 -52 11 -23 43 -96 71 -162 29 -66 63 -145 77 -175 14 -30
31 -68 38 -85 7 -16 27 -61 45 -100 18 -38 39 -86 47 -105 25 -58 54 -123 74
-162 10 -21 17 -38 15 -38 -1 0 -27 30 -56 68 -30 37 -79 97 -110 133 -30 36
-68 83 -85 104 -28 37 -167 207 -203 250 -10 11 -53 65 -97 120 -44 55 -82
102 -85 105 -18 17 -80 100 -80 107 0 4 53 7 117 6 65 -1 139 -2 166 -3z m318
-18 c0 -9 2 -26 4 -37 3 -17 8 -49 20 -125 8 -46 16 -98 20 -120 3 -14 7 -43
11 -65 3 -22 7 -51 10 -65 2 -14 7 -43 9 -65 3 -22 14 -92 25 -155 10 -63 22
-135 25 -160 4 -24 9 -48 11 -52 3 -5 2 -8 -3 -8 -4 0 -23 37 -42 83 -19 45
-51 116 -70 157 -19 41 -35 77 -36 80 0 3 -11 27 -23 54 -12 27 -22 50 -22 52
0 3 -13 33 -66 149 -23 52 -124 288 -124 291 0 6 87 9 168 6 68 -3 82 -6 83
-20z m276 19 l131 -1 7 -42 c4 -24 9 -52 11 -63 3 -11 11 -54 19 -95 8 -41 17
-86 20 -100 3 -14 8 -40 10 -59 3 -18 7 -37 10 -41 3 -4 7 -29 10 -56 4 -26 8
-51 10 -54 2 -4 7 -22 10 -41 3 -19 15 -79 25 -134 26 -134 29 -155 26 -155
-5 0 -66 101 -66 110 0 5 -4 10 -8 12 -4 2 -37 50 -72 108 -35 58 -67 107 -70
110 -3 3 -29 46 -59 95 -30 50 -57 92 -60 95 -3 3 -12 15 -18 28 -7 12 -19 32
-25 45 -7 12 -20 31 -29 42 -8 11 -33 49 -54 85 -21 36 -42 67 -45 70 -4 3 -9
13 -13 22 -6 18 19 25 73 21 14 -1 84 -2 157 -2z m477 -12 c-3 -5 -7 -22 -9
-37 -2 -15 -22 -124 -44 -242 -22 -118 -43 -232 -47 -254 -6 -38 -9 -54 -19
-98 -3 -13 -7 -34 -10 -48 -2 -14 -7 -43 -11 -65 -4 -22 -7 -46 -7 -52 0 -7
-4 -13 -8 -13 -8 0 -17 33 -23 87 -3 18 -7 40 -10 50 -3 10 -8 34 -11 53 -3
19 -10 53 -15 75 -5 22 -12 56 -15 75 -3 19 -13 69 -21 110 -9 41 -18 89 -21
105 -7 42 -11 60 -13 60 -1 0 -4 14 -6 30 -6 42 -24 137 -30 157 -5 16 8 18
143 20 158 3 186 1 177 -13z m371 9 c3 -2 -32 -157 -59 -263 -2 -5 -6 -28 -10
-50 -7 -33 -20 -90 -42 -175 -2 -8 -11 -46 -20 -85 -16 -73 -23 -103 -28 -120
-4 -16 -20 -89 -21 -97 0 -3 -3 -9 -7 -13 -8 -9 -19 37 -34 150 -3 17 -7 41
-11 55 -6 25 -12 67 -15 108 -1 12 -5 22 -9 22 -4 0 -6 7 -5 16 2 16 -5 65
-19 129 -3 16 -8 43 -10 60 -2 16 -6 43 -9 58 -2 15 -10 60 -16 100 -6 40 -14
80 -16 89 -4 15 5 18 78 20 95 3 248 1 253 -4z m300 -6 c-6 -4 -16 -18 -24
-32 -53 -92 -107 -190 -120 -217 -8 -18 -19 -33 -23 -33 -4 0 -8 -9 -8 -20 0
-11 -4 -20 -9 -20 -5 0 -11 -8 -14 -17 -3 -10 -21 -45 -40 -78 -18 -33 -49
-87 -67 -120 -54 -97 -129 -229 -139 -245 -8 -12 -9 -11 -6 5 6 35 44 201 49
216 3 8 8 25 10 39 3 14 8 39 11 55 3 17 10 44 15 60 5 17 12 44 15 60 8 46
14 75 19 93 3 9 8 32 11 51 3 19 8 38 11 42 2 4 9 31 15 61 6 29 13 64 15 77
3 14 7 27 9 30 1 3 65 5 141 3 76 -2 134 -6 129 -10z m335 2 c0 -2 -33 -73
-74 -157 -277 -572 -346 -717 -346 -728 0 -6 -5 -7 -10 -4 -6 4 -7 12 -3 18 4
6 8 23 9 37 9 92 15 138 19 160 3 14 7 48 10 75 3 28 8 63 11 79 2 16 7 52 9
80 3 28 7 62 10 76 3 14 12 77 20 140 23 175 24 183 24 207 1 22 5 22 113 25
115 3 208 -1 208 -8z m297 -19 c-12 -16 -34 -43 -49 -60 -15 -16 -28 -33 -28
-36 0 -3 -10 -17 -22 -31 -13 -14 -30 -34 -38 -44 -8 -11 -26 -33 -40 -50 -14
-17 -37 -46 -52 -65 -14 -19 -35 -44 -45 -56 -11 -12 -28 -34 -39 -49 -10 -15
-26 -34 -34 -43 -8 -9 -28 -35 -44 -56 -16 -22 -34 -44 -40 -50 -6 -5 -23 -26
-37 -45 -15 -19 -36 -46 -48 -59 -11 -13 -21 -27 -21 -30 0 -3 -18 -26 -40
-49 -22 -24 -40 -47 -40 -50 -1 -4 -17 -25 -36 -47 -20 -22 -34 -35 -32 -30 6
12 114 233 292 597 l136 277 53 3 c28 2 91 3 138 3 l87 0 -21 -30z m-2003 -52
c7 -20 16 -35 61 -103 17 -25 33 -46 38 -48 4 -2 7 -8 7 -13 0 -6 18 -37 40
-70 22 -33 40 -65 40 -70 0 -5 5 -9 10 -9 6 0 10 -7 10 -15 0 -8 5 -15 10 -15
6 0 10 -7 10 -15 0 -8 5 -15 10 -15 6 0 10 -4 10 -10 0 -5 34 -61 75 -124 41
-63 75 -119 75 -124 0 -6 4 -12 8 -14 19 -7 131 -198 138 -234 3 -21 9 -48 11
-59 3 -11 9 -38 13 -60 5 -22 11 -53 14 -70 10 -46 44 -226 50 -257 2 -15 7
-31 9 -35 3 -5 8 -32 11 -62 4 -29 8 -56 10 -60 2 -3 7 -24 10 -46 5 -37 5
-39 -10 -20 -8 11 -22 29 -32 40 -18 22 -138 169 -159 195 -24 30 -136 166
-157 190 -12 14 -58 70 -103 125 l-82 101 -16 94 c-9 52 -18 109 -21 125 -2
17 -6 41 -9 55 -4 23 -11 70 -19 125 -8 49 -17 103 -21 125 -3 14 -8 45 -10
70 -3 25 -8 52 -11 61 -2 10 -6 30 -9 45 -4 33 -22 145 -30 187 -6 30 9 37 19
10z m729 -28 c8 -55 17 -105 23 -135 3 -14 8 -38 10 -55 3 -16 7 -41 11 -55 3
-14 7 -37 9 -53 2 -15 15 -89 29 -165 13 -75 27 -150 30 -167 2 -16 7 -41 10
-55 23 -106 23 -98 -10 -240 -15 -63 -28 -122 -30 -130 -2 -8 -10 -45 -19 -81
-8 -37 -17 -78 -20 -90 -20 -95 -68 -290 -71 -287 -3 3 -11 41 -20 93 -1 11
-8 47 -15 80 -6 33 -13 69 -15 80 -2 11 -11 54 -20 95 -9 41 -18 92 -21 113
-3 21 -9 50 -15 64 -5 14 -8 28 -5 30 2 3 0 19 -6 36 -5 18 -11 46 -14 62 -2
17 -5 39 -7 50 -2 11 0 38 5 60 5 22 11 51 13 65 6 36 14 79 25 130 13 60 31
159 35 190 5 38 15 93 19 99 2 3 7 29 11 56 10 66 13 85 20 115 3 14 8 39 11
55 3 17 7 37 9 45 2 8 4 21 4 29 2 25 9 8 14 -34z m622 -12 c-11 -96 -13 -109
-20 -162 -4 -30 -8 -62 -10 -72 -2 -10 -7 -49 -10 -86 -4 -37 -9 -70 -10 -73
-2 -3 -6 -39 -10 -80 -4 -41 -8 -77 -10 -80 -2 -3 -6 -34 -10 -70 -5 -36 -9
-72 -10 -80 -1 -8 -5 -46 -9 -85 -6 -54 -15 -80 -39 -115 -17 -25 -34 -47 -37
-50 -3 -3 -19 -23 -35 -45 -17 -22 -33 -42 -36 -45 -3 -3 -50 -61 -104 -130
-54 -69 -128 -163 -164 -209 -67 -85 -128 -155 -118 -135 3 6 8 21 11 35 9 44
15 71 36 158 11 47 22 97 24 111 3 14 5 26 7 28 2 3 3 6 17 72 16 72 18 80 42
180 11 47 22 97 24 112 5 27 21 58 114 223 25 44 59 105 75 135 17 30 49 89
72 130 23 41 45 82 49 90 4 8 24 47 46 85 22 39 56 100 75 138 19 37 37 67 40
67 3 0 3 -21 0 -47z"/>
<path d="M82 4999 c-10 -4 -26 -34 -39 -75 -33 -104 -36 -119 -38 -254 -4
-176 20 -303 83 -440 29 -64 103 -180 114 -180 4 0 8 -6 8 -12 0 -25 194 -214
415 -407 247 -216 297 -262 505 -471 206 -206 365 -383 503 -560 218 -280 337
-467 478 -750 80 -162 96 -197 143 -320 21 -52 41 -104 46 -115 10 -24 51
-136 55 -150 1 -5 5 -17 8 -25 4 -8 25 -73 48 -145 74 -231 138 -385 190 -463
16 -24 29 -45 29 -48 0 -3 15 -20 33 -38 89 -89 165 -116 332 -116 237 0 329
55 432 261 57 113 75 155 103 239 10 30 23 66 28 80 6 14 21 59 33 100 23 80
133 382 169 465 12 28 26 61 32 75 6 14 14 32 19 40 5 8 12 22 14 30 14 38
140 285 147 288 4 2 8 8 8 13 0 28 184 311 316 484 187 247 332 413 579 660
184 184 257 254 380 360 32 28 63 55 69 60 17 15 128 109 155 131 13 10 69 64
125 119 205 202 270 292 342 470 4 11 18 61 30 110 19 77 22 112 19 240 -1 83
-5 162 -9 176 -16 70 -48 159 -59 166 -14 9 -1247 11 -1247 2 0 -4 16 -39 37
-79 30 -61 36 -85 38 -144 6 -206 -68 -384 -246 -595 -7 -7 -37 -43 -68 -80
-68 -81 -98 -114 -336 -366 -172 -183 -175 -186 -285 -305 -52 -57 -107 -116
-122 -131 -15 -16 -26 -29 -24 -29 2 0 -15 -20 -38 -45 -22 -24 -46 -50 -51
-57 -6 -7 -44 -54 -86 -103 -104 -126 -259 -335 -367 -495 -107 -158 -141
-201 -142 -180 0 8 -11 24 -25 34 -13 10 -22 22 -19 27 3 5 1 9 -4 9 -5 0 -14
12 -20 26 -7 14 -17 22 -22 19 -6 -3 -7 1 -4 9 3 9 1 16 -6 16 -6 0 -8 5 -5
10 3 6 1 10 -5 10 -6 0 -8 5 -5 10 3 6 -1 10 -10 10 -9 0 -13 5 -10 10 3 6 -1
13 -9 16 -9 3 -14 10 -11 14 2 4 -6 19 -20 34 -13 14 -21 26 -18 26 3 0 -11
20 -31 44 -20 24 -36 49 -36 55 0 6 -4 11 -8 11 -5 0 -14 12 -20 26 -7 15 -17
22 -24 18 -6 -4 -8 -3 -5 3 4 6 -4 22 -18 37 -13 15 -26 30 -27 34 -2 4 -7 6
-11 4 -5 -1 -6 2 -3 7 4 5 -2 14 -11 20 -10 6 -14 11 -9 11 4 0 -2 9 -15 21
-13 11 -17 18 -9 14 8 -3 -3 10 -25 31 -22 20 -34 33 -26 29 9 -5 12 -4 7 3
-4 7 -14 12 -22 12 -8 0 -12 5 -9 10 3 6 1 10 -6 10 -7 0 -10 3 -6 6 8 8 -18
34 -34 34 -7 0 -10 3 -6 6 3 3 -13 25 -37 48 -23 22 -29 30 -12 16 20 -17 14
-6 -20 36 -27 33 -51 59 -53 57 -3 -2 6 -15 20 -31 l24 -27 -27 24 c-16 14
-28 33 -28 43 0 10 -5 18 -11 18 -5 0 -7 -5 -3 -12 4 -7 3 -8 -4 -4 -6 4 -9
13 -5 22 3 9 0 14 -7 12 -7 -2 -22 14 -33 34 -11 20 -23 37 -26 36 -22 -2 -30
4 -24 20 3 9 3 14 -2 10 -4 -4 -18 7 -30 25 -12 18 -27 31 -33 29 -7 -1 -11 1
-11 5 3 19 -2 33 -12 33 -6 0 -17 7 -25 15 -9 8 -13 15 -10 15 3 0 -2 8 -11
18 -10 11 -21 17 -25 15 -5 -2 -8 0 -8 5 0 5 -25 36 -55 68 -30 33 -55 63 -55
67 0 5 -5 5 -10 2 -5 -3 -10 -2 -10 3 0 14 -41 57 -52 54 -5 -1 -7 2 -3 8 3 5
1 10 -4 10 -6 0 -11 7 -11 16 0 8 -5 12 -11 9 -6 -4 -13 2 -16 14 -3 12 -12
21 -19 21 -8 0 -14 3 -14 8 0 4 -26 35 -58 68 -31 34 -79 88 -107 120 -27 32
-64 73 -82 90 -17 18 -29 35 -26 38 4 3 1 6 -6 6 -7 0 -9 5 -6 10 4 6 3 9 -2
8 -4 -2 -8 1 -8 5 0 5 -8 13 -17 18 -10 6 -18 16 -18 24 0 7 -11 22 -25 33
-14 11 -25 24 -25 30 0 5 -8 20 -18 33 -28 37 -93 159 -85 159 5 0 2 4 -5 8
-7 5 -14 23 -15 40 -1 18 -6 32 -10 32 -5 0 -8 10 -7 23 1 12 1 24 0 27 -4 12
-11 46 -11 55 2 122 10 168 44 239 20 42 33 76 29 77 -32 5 -1217 3 -1230 -2z"/>
</g>
</svg>
