<?xml version="1.0" encoding="utf-8"?>
<!-- Generator: Adobe Illustrator 28.1.0, SVG Export Plug-In . SVG Version: 6.00 Build 0)  -->
<svg version="1.1" id="Layer_1" xmlns="http://www.w3.org/2000/svg" xmlns:xlink="http://www.w3.org/1999/xlink" x="0px" y="0px"
	 viewBox="0 0 11 11" style="enable-background:new 0 0 11 11;" xml:space="preserve">
<style type="text/css">
	.st0{fill-rule:evenodd;clip-rule:evenodd;}
</style>
<path class="st0" d="M1,1h9v9H1V1z M0,1c0-0.6,0.4-1,1-1h9c0.6,0,1,0.4,1,1v9c0,0.6-0.4,1-1,1H1c-0.6,0-1-0.4-1-1V1z M8.3,3.5
	C8.5,3.3,8.4,3,8.2,2.8C8,2.7,7.7,2.7,7.5,2.9L4.6,7.1L3.2,5.4C3,5.2,2.7,5.2,2.5,5.3C2.3,5.5,2.3,5.8,2.4,6l1.9,2.2
	c0.1,0.1,0.3,0.2,0.4,0.2c0.2,0,0.3-0.1,0.4-0.2L8.3,3.5z"/>
</svg>
