<?xml version="1.0" encoding="utf-8"?>
<!-- Generator: Adobe Illustrator 27.1.1, SVG Export Plug-In . SVG Version: 6.00 Build 0)  -->
<svg version="1.1" id="Layer_1" xmlns="http://www.w3.org/2000/svg" xmlns:xlink="http://www.w3.org/1999/xlink" x="0px" y="0px"
	 viewBox="0 0 384.15 384.15" style="enable-background:new 0 0 384.15 384.15;" xml:space="preserve">
<path d="M373.58,322.68l-130.6-130.6l130.6-130.6c14.1-14.1,14.1-36.8,0-50.9s-36.8-14.1-50.9,0l-130.6,130.6L61.47,10.58
	c-14.1-14.1-36.8-14.1-50.9,0s-14.1,36.8,0,50.9l130.6,130.6l-130.6,130.6c-14.1,14.1-14.1,36.8,0,50.9s36.8,14.1,50.9,0
	l130.6-130.6l130.6,130.6c14.1,14.1,36.8,14.1,50.9,0C387.58,359.48,387.58,336.68,373.58,322.68z"/>
</svg>
