<?xml version="1.0" encoding="utf-8"?>
<!-- Generator: Adobe Illustrator 27.1.1, SVG Export Plug-In . SVG Version: 6.00 Build 0)  -->
<svg version="1.1" id="Google_Plus" xmlns="http://www.w3.org/2000/svg" xmlns:xlink="http://www.w3.org/1999/xlink" x="0px"
	 y="0px" viewBox="0 0 420 418.9" style="enable-background:new 0 0 420 418.9;" xml:space="preserve">
<path d="M210,0C94,0,0,93.8,0,209.5c0,115.7,94,209.5,210,209.5c116,0,210-93.8,210-209.5C420,93.8,326,0,210,0z M161.7,306.1
	c-53.4,0-96.7-43.3-96.7-96.7c0-53.4,43.3-96.7,96.7-96.7c26.1,0,47.9,9.6,64.6,25.2l-27.3,27.2v-0.1c-10.1-9.7-23-14.6-37.4-14.6
	c-31.9,0-57.8,26.9-57.8,58.8c0,31.9,25.9,58.9,57.8,58.9c28.9,0,48.6-16.6,52.7-39.3h-52.7v-37.7h90.9c1.2,6.5,1.9,13.2,1.9,20.3
	C254.5,266.9,217.5,306.1,161.7,306.1z M355,221.6h-30.2v30.2h-24.2v-30.2h-30.2v-24.2h30.2v-30.2h24.2v30.2H355V221.6z"/>
</svg>
