<svg xmlns="http://www.w3.org/2000/svg" width="22.948" height="22.943" viewBox="0 0 22.948 22.943">
  <path id="instagram" d="M11.4,37.414A5.882,5.882,0,1,0,17.284,43.3,5.873,5.873,0,0,0,11.4,37.414Zm0,9.707A3.824,3.824,0,1,1,15.226,43.3,3.831,3.831,0,0,1,11.4,47.121Zm7.5-9.947A1.372,1.372,0,1,1,17.525,35.8,1.369,1.369,0,0,1,18.9,37.174Zm3.9,1.393a6.79,6.79,0,0,0-1.853-4.807,6.835,6.835,0,0,0-4.807-1.853c-1.894-.108-7.572-.108-9.466,0a6.825,6.825,0,0,0-4.807,1.848A6.812,6.812,0,0,0,.006,38.561c-.108,1.894-.108,7.572,0,9.466a6.79,6.79,0,0,0,1.853,4.807,6.843,6.843,0,0,0,4.807,1.853c1.894.108,7.572.108,9.466,0a6.79,6.79,0,0,0,4.807-1.853,6.835,6.835,0,0,0,1.853-4.807C22.9,46.133,22.9,40.46,22.793,38.566ZM20.346,50.06a3.872,3.872,0,0,1-2.181,2.181c-1.51.6-5.094.461-6.763.461s-5.258.133-6.763-.461A3.872,3.872,0,0,1,2.458,50.06C1.859,48.549,2,44.966,2,43.3s-.133-5.258.461-6.763a3.872,3.872,0,0,1,2.181-2.181c1.51-.6,5.094-.461,6.763-.461s5.258-.133,6.763.461a3.872,3.872,0,0,1,2.181,2.181c.6,1.51.461,5.094.461,6.763S20.945,48.554,20.346,50.06Z" transform="translate(0.075 -31.825)" fill="#fff"/>
</svg>
