<?xml version="1.0" encoding="utf-8"?>
<!-- Generator: Adobe Illustrator 27.1.1, SVG Export Plug-In . SVG Version: 6.00 Build 0)  -->
<svg version="1.1" id="Layer_1" xmlns="http://www.w3.org/2000/svg" xmlns:xlink="http://www.w3.org/1999/xlink" x="0px" y="0px"
	 viewBox="0 0 26 24" style="enable-background:new 0 0 26 24;" xml:space="preserve">
<path d="M14.76,18.4c0,0,4.5,4.5,4.82,4.82c1.04,1.04,2.73,1.04,3.76,0c1.04-1.04,1.04-2.73,0-3.76c-0.32-0.32-4.82-4.82-4.82-4.82
	L14.76,18.4z"/>
<path d="M22,8l-3.2-0.8L18,4L21.7,0.3c-2.13-0.68-4.55-0.18-6.24,1.51c-2.41,2.41-1.64,5.55,0.77,7.96
	c2.41,2.41,5.55,3.18,7.96,0.77c1.69-1.69,2.19-4.11,1.51-6.24L22,8z"/>
<polygon points="10.5,8.5 7,5 6,2 2,0 0,2 2,6 5,7 8.5,10.5 "/>
<path d="M15.88,5.88c-3.36,3.36-12.64,12.64-13,13c-1.17,1.17-1.17,3.07,0,4.24c1.17,1.17,3.07,1.17,4.24,0
	c0.36-0.36,9.64-9.64,13-13L15.88,5.88z M5,22c-0.55,0-1-0.45-1-1s0.45-1,1-1s1,0.45,1,1S5.55,22,5,22z"/>
</svg>
